<svg xmlns="http://www.w3.org/2000/svg" viewBox="0 0 64 64" role="img" data-origin="generated-owned-artwork" data-style-contract="helm-openbridge-navigation-v1" data-repair-batch="standard-repair-batch55" style="--black:#14120f;--white:#d7d2c5;--red:#d65550;--green:#63b565;--yellow:#d3b84a;--blue:#7695ab;--orange:#c9793c;--magenta:#a959a0;--grey:#777b78;--gray:#777b78;--brown:#9a7c3d;--ink:#14120f" data-canonical-asset="BOYCON69" data-canonical-revision="canonical-by-asset-v1" width="150" height="150" data-helm-proof-render="helm-canonical-art" data-helm-preview-source="canonical-art" data-canonical-source="assets/svg/owned_repair_batch63/BOYCON69.svg"><title>BOYCON69 can/cone buoy parity repair candidate</title><g stroke-linecap="round" stroke-linejoin="round"><defs><clipPath id="clip_BOYCON69"><path d="M28 15 C30.5 12.5 33.5 12.5 36 15 C46 26 52 38 54 48 L10 48 C12 38 18 26 28 15 Z"/></clipPath></defs><rect x="12" y="12.00" width="40" height="20.00" fill="var(--black)" clip-path="url(#clip_BOYCON69)" data-pattern="horizontal-buoy-band"/><rect x="12" y="32.00" width="40" height="20.00" fill="var(--yellow)" clip-path="url(#clip_BOYCON69)" data-pattern="horizontal-buoy-band"/><path d="M28 15 C30.5 12.5 33.5 12.5 36 15 C46 26 52 38 54 48 L10 48 C12 38 18 26 28 15 Z" fill="none" stroke="var(--black)" stroke-width="3"/><path id="straight-waterline" d="M8 48 H56" fill="none" stroke="var(--black)" stroke-width="3"/><circle id="outer-lid" cx="32" cy="48" r="5.4" fill="var(--black)" stroke="none"/><circle id="inner-lid-cutout" cx="32" cy="48" r="3.2" fill="var(--white)" stroke="none"/></g></svg>
