<svg xmlns="http://www.w3.org/2000/svg" viewBox="0 0 64 64" role="img" data-origin="generated-owned-artwork" data-style-contract="helm-openbridge-navigation-v1" data-repair-batch="standard-repair-batch93" style="--black:#14120f;--white:#d7d2c5;--red:#d65550;--green:#63b565;--yellow:#d3b84a;--blue:#7695ab;--orange:#c9793c;--magenta:#a959a0;--grey:#777b78;--gray:#777b78;--brown:#9a7c3d;--ink:#14120f" data-canonical-asset="DQUALB01" data-canonical-revision="canonical-by-asset-v1" width="150" height="150" data-helm-proof-render="helm-canonical-art" data-helm-preview-source="canonical-art" data-canonical-source="assets/svg/owned_repair_batch93/DQUALB01.svg"><title>DQUALB01 strict line/pattern repair candidate</title><g stroke-linecap="round" stroke-linejoin="round"><path d="M20 21 H44 L32 45 Z" fill="none" stroke="var(--gray)" stroke-width="1"/><path d="M22.8 28 L27.2 28" fill="none" stroke="var(--gray)" stroke-width="0.75"/><path d="M25 25.8 L25 30.2" fill="none" stroke="var(--gray)" stroke-width="0.75"/><path d="M23.4 26.4 L26.6 29.6" fill="none" stroke="var(--gray)" stroke-width="0.65"/><path d="M23.4 29.6 L26.6 26.4" fill="none" stroke="var(--gray)" stroke-width="0.65"/><path d="M29.8 28 L34.2 28" fill="none" stroke="var(--gray)" stroke-width="0.75"/><path d="M32 25.8 L32 30.2" fill="none" stroke="var(--gray)" stroke-width="0.75"/><path d="M30.4 26.4 L33.6 29.6" fill="none" stroke="var(--gray)" stroke-width="0.65"/><path d="M30.4 29.6 L33.6 26.4" fill="none" stroke="var(--gray)" stroke-width="0.65"/><path d="M36.8 28 L41.2 28" fill="none" stroke="var(--gray)" stroke-width="0.75"/><path d="M39 25.8 L39 30.2" fill="none" stroke="var(--gray)" stroke-width="0.75"/><path d="M37.4 26.4 L40.6 29.6" fill="none" stroke="var(--gray)" stroke-width="0.65"/><path d="M37.4 29.6 L40.6 26.4" fill="none" stroke="var(--gray)" stroke-width="0.65"/><path d="M26.3 36 L30.7 36" fill="none" stroke="var(--gray)" stroke-width="0.75"/><path d="M28.5 33.8 L28.5 38.2" fill="none" stroke="var(--gray)" stroke-width="0.75"/><path d="M26.9 34.4 L30.1 37.6" fill="none" stroke="var(--gray)" stroke-width="0.65"/><path d="M26.9 37.6 L30.1 34.4" fill="none" stroke="var(--gray)" stroke-width="0.65"/><path d="M33.3 36 L37.7 36" fill="none" stroke="var(--gray)" stroke-width="0.75"/><path d="M35.5 33.8 L35.5 38.2" fill="none" stroke="var(--gray)" stroke-width="0.75"/><path d="M33.9 34.4 L37.1 37.6" fill="none" stroke="var(--gray)" stroke-width="0.65"/><path d="M33.9 37.6 L37.1 34.4" fill="none" stroke="var(--gray)" stroke-width="0.65"/></g></svg>
