<?xml version="1.0" encoding="UTF-8" standalone="no"?>
<!-- Created with Pixodesk SVG (https://pixodesk.com) -->
<svg xmlns="http://www.w3.org/2000/svg" viewBox="0 0 64 64" text-rendering="geometricPrecision" shape-rendering="geometricPrecision" style="--black:#14120f;--white:#d7d2c5;--red:#d65550;--green:#63b565;--yellow:#d3b84a;--blue:#7695ab;--orange:#c9793c;--magenta:#a959a0;--grey:#777b78;--gray:#777b78;--brown:#9a7c3d;--ink:#14120f" data-canonical-asset="NMKINF49" data-canonical-revision="canonical-by-asset-v1" width="150" height="150" data-helm-proof-render="helm-canonical-art" data-helm-preview-source="canonical-art" data-canonical-source="assets/svg/human_approved_nmkinf/NMKINF49.svg">
  <g stroke-linecap="round" stroke-linejoin="round">
    <rect fill="var(--blue)" stroke="var(--black)" stroke-width="1.8" rx="3" ry="0" x="10" y="10" width="44" height="44"/>
  </g>
  <path fill="var(--white)" transform="translate(-1.12, -103.7337)" d="M49.4754,144.4383C48.801,144.4383,48.1398,144.2796,47.5712,144.0283C46.9762,143.7506,46.315,143.592,45.6141,143.592C44.9133,143.592,44.2521,143.7506,43.6571,144.0283C43.0752,144.2928,42.4273,144.4383,41.7529,144.4383C41.0785,144.4383,40.4306,144.2796,39.8487,144.0283C39.2537,143.7506,38.5925,143.592,37.8917,143.592C37.2041,143.592,36.5297,143.7506,35.9346,144.0283C35.3528,144.2928,34.7048,144.4383,34.0304,144.4383C33.3561,144.4383,32.7081,144.2796,32.1263,144.0283C31.5312,143.7506,30.87,143.592,30.1692,143.592C29.4684,143.592,28.8072,143.7506,28.2121,144.0283C27.6303,144.2928,26.9824,144.4383,26.308,144.4383C25.6336,144.4383,24.9856,144.2796,24.417,144.0283C23.822,143.7506,23.1608,143.592,22.46,143.592C21.7591,143.592,21.0979,143.7506,20.5029,144.0283C19.9211,144.2928,19.2863,144.4383,18.5987,144.4383L18.5987,141.582C19.2731,141.582,19.9211,141.4233,20.5029,141.1721C21.0979,140.9076,21.7591,140.7357,22.46,140.7357C23.1608,140.7357,23.822,140.8944,24.417,141.1721C24.9989,141.4365,25.6336,141.582,26.308,141.582C26.9823,141.582,27.6303,141.4233,28.2121,141.1721C28.8072,140.9076,29.4684,140.7357,30.1692,140.7357C30.87,140.7357,31.5312,140.8944,32.1263,141.1721C32.7081,141.4365,33.3428,141.582,34.0304,141.582C34.7048,141.582,35.3528,141.4233,35.9346,141.1721C36.5297,140.9076,37.1908,140.7357,37.8917,140.7357C38.5925,140.7357,39.2537,140.8944,39.8487,141.1721C40.4306,141.4365,41.0785,141.582,41.7529,141.582C42.4273,141.582,43.0752,141.4233,43.6571,141.1721C44.2521,140.9076,44.9133,140.7357,45.6141,140.7357C46.3017,140.7357,46.9762,140.8944,47.5712,141.1721C48.153,141.4365,48.801,141.582,49.4754,141.582L49.4754,144.4383zM41.7132,132.5372L47.32,132.9736L46.8968,130.1041L42.7843,129.8132C41.6736,129.7603,41.8322,130.871,41.8322,130.871L41.7132,132.5372zM31.3064,131.876C32.3378,131.876,33.1709,131.0429,33.1709,130.0115C33.1709,128.9801,32.3378,128.147,31.3064,128.147C30.275,128.147,29.4419,128.9801,29.4419,130.0115C29.4551,131.0429,30.275,131.876,31.3064,131.876zM19.8285,139.0431C20.0665,138.977,20.2913,138.8844,20.5161,138.7786C21.1112,138.501,21.7724,138.3423,22.4732,138.3423C23.174,138.3423,23.8352,138.5009,24.4303,138.7786C25.0121,139.0431,25.6468,139.1886,26.3212,139.1886C26.9956,139.1886,27.6435,139.0299,28.2254,138.7786C28.8204,138.501,29.4816,138.3423,30.1824,138.3423C30.8833,138.3423,31.5444,138.5009,32.1395,138.7786C32.7213,139.0431,33.3561,139.1886,34.0437,139.1886C34.718,139.1886,35.366,139.0299,35.9478,138.7786C36.5429,138.501,37.2041,138.3423,37.9049,138.3423C38.6057,138.3423,39.2669,138.5009,39.862,138.7786C40.4438,139.0431,41.0918,139.1886,41.7661,139.1886C42.4405,139.1886,43.0885,139.0299,43.6703,138.7786C44.2654,138.501,44.9265,138.3423,45.6274,138.3423C46.315,138.3423,46.9894,138.5009,47.5844,138.7786C48.1663,139.0431,48.801,139.1886,49.4886,139.1886L48.8539,134.1108L25.5146,132.1669L29.032,128.6098L27.4849,128.4776L23.9674,132.0347L16.3375,131.4C16.2979,134.005,19.1938,138.3423,19.8285,139.0431L19.8285,139.0431z"/>
</svg>