<?xml version="1.0" encoding="UTF-8" standalone="no"?>
<!-- Created with Pixodesk SVG (https://pixodesk.com) -->
<svg xmlns="http://www.w3.org/2000/svg" viewBox="0 0 64 64" text-rendering="geometricPrecision" shape-rendering="geometricPrecision" style="--black:#14120f;--white:#d7d2c5;--red:#d65550;--green:#63b565;--yellow:#d3b84a;--blue:#7695ab;--orange:#c9793c;--magenta:#a959a0;--grey:#777b78;--gray:#777b78;--brown:#9a7c3d;--ink:#14120f" data-canonical-asset="NMKINF46" data-canonical-revision="canonical-by-asset-v1" width="150" height="150" data-helm-proof-render="helm-canonical-art" data-helm-preview-source="canonical-art" data-canonical-source="assets/svg/human_approved_nmkinf/NMKINF46.svg">
  <g stroke-linecap="round" stroke-linejoin="round">
    <rect fill="var(--blue)" stroke="var(--black)" stroke-width="1.8" rx="3" ry="0" x="10" y="10" width="44" height="44"/>
  </g>
  <path fill="var(--white)" stroke="var(--black)" stroke-width="1.25" stroke-miterlimit="10" transform="translate(10.025, 12.3596)scale(0.05, 0.05)" d="M310.2968,104.2285C308.3174,104.1754,307.0131,104.3891,306.498,104.9043C305.138,106.2642,336.951,191.5007,377.1835,294.3281C417.4147,397.1518,456.7946,498.1915,464.6796,518.8515C472.567,539.5177,482.0112,564.1725,485.6699,573.6425C489.3211,583.1125,493.6939,590.8613,495.3789,590.8613C499.9214,590.8613,688.5427,471.7146,697.8789,462.9472C704.2013,457.0097,704.3958,448.2682,698.7871,421.3945C676.1709,313.0395,581.8697,208.8603,452.166,148.9316C411.5728,130.1757,329.4311,104.7417,310.2968,104.2285zM486.8164,352.6562C491.1412,352.6397,495.4344,352.7238,499.6953,352.9101C522.419,353.9038,544.227,357.8057,564.9257,364.6582C585.6257,371.5094,605.2026,381.3091,623.4863,393.9316C641.7688,406.5541,658.7578,421.9855,674.4453,440.0742L660.4023,452.2519C601.3411,384.1507,525.3133,358.9885,432.3183,376.7597L428.83,358.5019C448.7382,354.6974,468.0754,352.7279,486.8164,352.6562z"/>
  <path fill="var(--white)" stroke="var(--black)" stroke-width="1.25" stroke-miterlimit="10" transform="translate(10.025, 12.3596)scale(0.05, 0.05)" d="M248.2681,371.4327C248.2681,362.2452,244.463,353.0577,237.9656,346.5615C231.4694,340.0653,222.2818,336.259,213.0943,336.259C203.9068,336.259,194.7192,340.0653,188.223,346.5615C181.7268,353.0577,177.9205,362.2452,177.9205,371.4327C177.9205,380.6202,181.7268,389.8078,188.223,396.3052C194.7192,402.8014,203.9068,406.6065,213.0943,406.6065C222.2818,406.6065,231.4694,402.8013,237.9656,396.3039C244.463,389.8077,248.2681,380.6202,248.2681,371.4327z"/>
  <path fill="var(--white)" stroke="var(--black)" stroke-width="1.25" stroke-miterlimit="10" transform="translate(10.025, 12.3596)scale(0.05, 0.05)" d="M166.2593,709.4715C164.1082,709.8227,161.8505,709.7027,159.7293,709.129C156.9332,708.3741,154.3718,706.8314,152.4093,704.6315C149.9731,701.9015,148.4593,698.1589,148.3856,694.5927L147.9956,676.0265C147.9569,674.1815,148.2731,672.3327,148.9443,670.479C150.2843,666.7728,152.6955,663.9927,156.1742,662.139C157.9142,661.2128,159.6994,660.6376,161.5306,660.4152C169.2968,659.4678,177.1819,657.7164,185.1831,655.1577C208.2142,647.0378,232.4331,647.0378,257.8381,655.1577C283.2418,663.2789,307.4607,663.2789,330.4918,655.1587C353.5243,647.0375,377.7431,647.0375,403.1468,655.1587C428.5517,663.2786,452.7707,663.2786,475.8018,655.1587C498.8329,647.0375,523.0531,647.0375,548.4568,655.1577C573.8605,663.2789,598.0807,663.2789,621.1118,655.1577C644.1429,647.0378,668.3619,647.0378,693.7668,655.1577C699.753,657.0714,705.673,658.5341,711.528,659.5465C713.263,659.8464,714.9393,660.4614,716.5605,661.3914C719.8005,663.2538,722.0631,665.9403,723.3455,669.4502C723.9867,671.2051,724.3067,672.9628,724.3067,674.7227L724.3067,693.0602C724.3067,695.3389,723.7843,697.6503,722.7893,699.7265C721.7956,701.8027,720.328,703.644,718.5368,705.0802C716.7443,706.5151,714.6279,707.5453,712.3855,708.064C710.1418,708.5827,707.773,708.5889,705.548,708.0915C701.6493,707.2215,697.723,706.1539,693.7668,704.889C668.3619,696.7678,644.1429,696.7678,621.1118,704.889C598.0807,713.0102,573.8605,713.0102,548.4568,704.889C523.0531,696.7678,498.8329,696.7678,475.8018,704.889C452.7707,713.0102,428.5517,713.0102,403.1468,704.89C377.7431,696.7688,353.5242,696.7688,330.4918,704.889C307.4607,713.0102,283.2417,713.0102,257.838,704.889C232.433,696.7678,208.2141,696.7678,185.183,704.889C178.8007,706.9289,172.4918,708.4566,166.2593,709.4715z"/>
  <path fill="var(--white)" stroke="var(--black)" stroke-width="1.25" stroke-miterlimit="10" transform="translate(10.025, 12.3596)scale(0.05, 0.05)" d="M295.4443,515.724C342.3905,515.724,361.0593,515.7241,370.4193,515.7353C379.7793,515.7478,379.8319,515.7715,393.5831,529.3015C407.3331,542.8314,434.7819,569.8665,449.0093,587.0065C463.2355,604.1452,464.2418,611.3891,456.4581,615.9978C448.6744,620.6078,432.1018,622.5827,372.1531,566.9415C351.3594,566.2328,320.8718,567.2002,298.4531,566.664C243.1381,565.3403,236.9368,554.8564,206.0906,481.2103C192.4394,448.6166,191.8743,444.9352,201.2118,430.689C210.3467,416.7503,215.1456,415.534,236.7356,415.534C261.338,415.534,321.3419,419.0964,345.9131,402.094C368.4193,386.5191,386.178,386.6366,386.178,403.3565C386.178,419.1914,328.3305,446.8428,295.2043,446.8428C283.2506,446.8428,273.4668,448.3466,273.4668,448.7965C273.4668,450.1814,273.4668,452.0216,295.4443,515.724L295.4443,515.724z"/>
</svg>