<?xml version="1.0" encoding="UTF-8"?>
<svg xmlns="http://www.w3.org/2000/svg" viewBox="0 0 64 64" role="img" data-origin="openbridge-apache-reference" data-style-contract="helm-openbridge-navigation-v1" data-repair-batch="standard-repair-batch105" data-reference-source="openbridge:obi-crane" style="--black:#14120f;--white:#d7d2c5;--red:#d65550;--green:#63b565;--yellow:#d3b84a;--blue:#7695ab;--orange:#c9793c;--magenta:#a959a0;--grey:#777b78;--gray:#777b78;--brown:#9a7c3d;--ink:#14120f" data-canonical-asset="NMKINF21" data-canonical-revision="canonical-by-asset-v1" width="150" height="150" data-helm-proof-render="helm-canonical-art" data-helm-preview-source="canonical-art" data-canonical-source="assets/svg/human_approved_nmkinf/NMKINF21.svg"><title>NMKINF21 Helm loading/unloading notice pictogram repair</title><g stroke-linecap="round" stroke-linejoin="round"><rect x="10" y="10" width="44" height="44" rx="3" fill="var(--blue)" stroke="var(--black)" stroke-width="1.8"/><g transform="translate(16 16) scale(1.35)"><path d="M17 7V11H14V15H22V11H19V7H17Z" fill="var(--white)"/><path fill-rule="evenodd" clip-rule="evenodd" d="M7 7.23611C7.37154 6.90357 7.65971 6.47979 7.82929 6L21 6V4L7.82929 4C7.41746 2.83481 6.30622 2 5 2C3.34315 2 2 3.34315 2 5C2 6.2562 2.82457 7.41384 4 7.82929L6 19H3V22H14V19H11L7 7.23611ZM5 6C5.55228 6 6 5.55228 6 5C6 4.44772 5.55228 4 5 4C4.44772 4 4 4.44772 4 5C4 5.55228 4.44772 6 5 6Z" fill="var(--white)"/></g></g></svg>
