<?xml version="1.0" encoding="UTF-8"?>
<svg xmlns="http://www.w3.org/2000/svg" viewBox="0 0 64 64" role="img" data-origin="generated-owned-artwork" data-style-contract="helm-openbridge-navigation-v1" data-repair-batch="standard-repair-batch105" style="--black:#14120f;--white:#d7d2c5;--red:#d65550;--green:#63b565;--yellow:#d3b84a;--blue:#7695ab;--orange:#c9793c;--magenta:#a959a0;--grey:#777b78;--gray:#777b78;--brown:#9a7c3d;--ink:#14120f" data-canonical-asset="NMKINF19" data-canonical-revision="canonical-by-asset-v1" width="150" height="150" data-helm-proof-render="helm-canonical-art" data-helm-preview-source="canonical-art" data-canonical-source="assets/svg/human_approved_nmkinf/NMKINF19.svg"><title>NMKINF19 Helm notice-information pictogram repair</title><g stroke-linecap="round" stroke-linejoin="round"><rect x="10" y="10" width="44" height="44" rx="3" fill="var(--blue)" stroke="var(--black)" stroke-width="1.8"/><g transform="translate(14 14) scale(1.5)"><path d="M17 15L18.55 16.55C17.59 18.24 15.22 19.59 13 19.92V11H16V9H13V7.82C14.16 7.4 15 6.3 15 5C15 3.35 13.65 2 12 2C10.35 2 9 3.35 9 5C9 6.3 9.84 7.4 11 7.82V9H8V11H11V19.92C8.78 19.59 6.41 18.24 5.45 16.55L7 15L3 12V15C3 18.88 7.92 22 12 22C16.08 22 21 18.88 21 15V12L17 15ZM12 4C12.55 4 13 4.45 13 5C13 5.55 12.55 6 12 6C11.45 6 11 5.55 11 5C11 4.45 11.45 4 12 4Z" fill="var(--white)" stroke="none"/></g></g></svg>
