<svg xmlns="http://www.w3.org/2000/svg" viewBox="0 0 64 64" role="img" data-origin="generated-owned-artwork" data-style-contract="helm-openbridge-navigation-v1" data-repair-batch="standard-repair-batch19" style="--black:#14120f;--white:#d7d2c5;--red:#d65550;--green:#63b565;--yellow:#d3b84a;--blue:#7695ab;--orange:#c9793c;--magenta:#a959a0;--grey:#777b78;--gray:#777b78;--brown:#9a7c3d;--ink:#14120f" data-canonical-asset="UWTROC03" data-canonical-revision="canonical-by-asset-v1" width="150" height="150" data-helm-proof-render="helm-canonical-art" data-helm-preview-source="canonical-art" data-canonical-source="assets/svg/owned_repair_batch27/UWTROC03.svg"><title>UWTROC03 wreck rock hazard repair batch 27 candidate</title><g stroke-linecap="round" stroke-linejoin="round"><circle cx="32" cy="32" r="20" fill="var(--blue)" stroke="none"/><circle cx="52.0" cy="32.0" r="2.2" fill="var(--black)" stroke="none"/><circle cx="51.0" cy="38.2" r="2.2" fill="var(--black)" stroke="none"/><circle cx="48.2" cy="43.8" r="2.2" fill="var(--black)" stroke="none"/><circle cx="43.8" cy="48.2" r="2.2" fill="var(--black)" stroke="none"/><circle cx="38.2" cy="51.0" r="2.2" fill="var(--black)" stroke="none"/><circle cx="32.0" cy="52.0" r="2.2" fill="var(--black)" stroke="none"/><circle cx="25.8" cy="51.0" r="2.2" fill="var(--black)" stroke="none"/><circle cx="20.2" cy="48.2" r="2.2" fill="var(--black)" stroke="none"/><circle cx="15.8" cy="43.8" r="2.2" fill="var(--black)" stroke="none"/><circle cx="13.0" cy="38.2" r="2.2" fill="var(--black)" stroke="none"/><circle cx="12.0" cy="32.0" r="2.2" fill="var(--black)" stroke="none"/><circle cx="13.0" cy="25.8" r="2.2" fill="var(--black)" stroke="none"/><circle cx="15.8" cy="20.2" r="2.2" fill="var(--black)" stroke="none"/><circle cx="20.2" cy="15.8" r="2.2" fill="var(--black)" stroke="none"/><circle cx="25.8" cy="13.0" r="2.2" fill="var(--black)" stroke="none"/><circle cx="32.0" cy="12.0" r="2.2" fill="var(--black)" stroke="none"/><circle cx="38.2" cy="13.0" r="2.2" fill="var(--black)" stroke="none"/><circle cx="43.8" cy="15.8" r="2.2" fill="var(--black)" stroke="none"/><circle cx="48.2" cy="20.2" r="2.2" fill="var(--black)" stroke="none"/><circle cx="51.0" cy="25.8" r="2.2" fill="var(--black)" stroke="none"/><path d="M32 17 V47 M17 32 H47" fill="none" stroke="var(--black)" stroke-width="6"/></g></svg>
