<svg xmlns="http://www.w3.org/2000/svg" viewBox="0 0 64 64" role="img" data-origin="generated-owned-artwork" data-style-contract="helm-openbridge-navigation-v1" data-repair-batch="triad-judge-batch2" style="--black:#000000;--white:#ffffff;--red:#EA5471;--green:#52E83B;--yellow:#F4DA48;--blue:#8FB5D9;--orange:#EB7D36;--magenta:#C545C3;--grey:#7D898C;--gray:#7D898C;--brown:#B19139;--ink:#000000" data-canonical-asset="ACHPNT01" data-canonical-revision="canonical-by-asset-v1" width="150" height="150" data-helm-proof-render="helm-canonical-art" data-helm-preview-source="canonical-art" data-canonical-source="assets/svg/owned_repair_batch8/ACHPNT01.svg"><title>ACHPNT01 triad judge repair candidate</title><g stroke-linecap="round" stroke-linejoin="round">
<g transform="translate(4 -3) scale(0.22)" data-anchor-family-base="Anchor_pictogram.svg" data-anchor-geometry="user-supplied-exact-paths">
  <path fill="var(--white)" stroke="var(--magenta)" stroke-width="3" d="M127,32C115,32,104,42,105,54C105,66,127,75,127,75C127,75,149,66,149,54C149,42,139,32,127,32zM126,43C132,43,137,48,137,53C137,59,132,64,126,64C120,64,116,59,116,53C116,48,120,43,126,43z"/>
  <path fill="var(--white)" stroke="var(--magenta)" stroke-width="3" d="M118.537,71.179C117.484,71.16,118.537,73.254,118.537,80.263L118.537,89.347L96.656,89.041C79.453,88.801,74.429,89.023,73.156,90.079C71.12,91.768,70.8,103.157,72.787,103.214L117.537,103.11C117.587,113.799,117.726,124.489,117.59,135.179C117.086,157.259,116.698,179.341,116.493,201.426C116.403,213.386,115.948,224.862,115.482,226.926C113.728,234.706,108.821,235.763,93.697,231.617C77.968,227.305,58.433,217.721,55.145,212.704C52.531,208.714,52.123,205.294,54.012,203.206C54.954,202.165,56.354,201.556,57.124,201.851C57.975,202.177,58.87,201.465,59.408,200.034C61.301,194.994,54.982,187.545,42.536,180.144C39.511,178.345,34.561,174.482,31.536,171.56C28.362,168.494,25.563,166.548,24.917,166.962C22.908,168.249,18.797,177.546,17.534,183.659C14.995,195.947,18.217,214.08,24.202,221.194C27.362,224.95,29.125,224.982,29.861,221.299C31.159,214.809,39.236,216.682,48.035,225.51C54.999,232.498,68.26,242.628,74.035,245.372C76.235,246.417,79.385,248.116,81.035,249.148C82.685,250.179,87.635,252.255,92.035,253.759C101.253,256.912,112.047,262.494,116.322,266.319C117.946,267.771,120.398,269.697,121.772,270.596C124.175,272.171,124.334,272.134,125.966,269.642C129.365,264.454,135.23,259.913,144.112,255.593C149.104,253.163,153.94,251.177,154.856,251.177C156.805,251.177,173.251,243.902,183.157,238.656C190.921,234.546,194.417,232.069,203.091,224.535C212.882,216.03,217.836,215.069,222.975,220.679L226.183,224.182L228.244,221.929C231.971,217.854,233.342,213.757,234.062,204.546C234.613,197.503,234.378,193.679,233.025,187.566C230.883,177.908,227.295,169.653,224.611,168.216C222.916,167.31,222.34,167.571,220.891,169.909C218.372,173.974,214.855,177.171,208.079,181.551C199.966,186.795,195.069,192.2,193.563,197.577C192.11,202.77,192.772,204.656,195.531,203.18C198.541,201.569,200.502,202.008,201.661,204.554C203.294,208.136,200.842,211.019,191.362,216.658C175.171,226.289,153.462,234.178,143.146,234.178C138.278,234.178,133.708,232.295,132.975,229.989C132.622,228.877,132.604,215.752,132.935,200.823C133.266,185.893,133.801,158.159,134.124,139.19C134.447,120.221,134.863,104.456,135.049,104.156C135.235,103.857,145.546,103.706,157.965,103.822C183.729,104.062,182.373,104.546,182.16,95.179L182.035,89.679C166.648,88.6,150.897,90.621,135.575,88.553C135.286,88.263,134.983,84.699,134.903,80.633L134.757,71.466L118.537,71.179z"/>
  <rect fill="var(--white)" stroke="var(--white)" transform="translate(125.9932, 75.1675)translate(-6.845, -3.2308)" x="1.3974" y="-1.9278" width="12.2927" height="8.3893"/>
  <path fill="var(--white)" stroke="var(--white)" transform="translate(115.1258, 73.9384)" d="M0,0"/>
  <rect fill="var(--white)" stroke="var(--white)" transform="translate(120.5912, 70.9059)translate(-0.468, -1.5839)" width="0.936" height="3.1678"/>
</g></g></svg>
