<svg data-human-approved-by="Steve" data-human-approved-date="2026-07-04" data-candidate-revision="beacon-style-refresh-v1-human-approved" xmlns="http://www.w3.org/2000/svg" viewBox="0 0 64 64" role="img" style="--black:#000000;--white:#ffffff;--red:#EA5471;--green:#52E83B;--yellow:#F4DA48;--blue:#8FB5D9;--orange:#EB7D36;--magenta:#C545C3;--grey:#7D898C;--gray:#7D898C;--brown:#B19139;--ink:#000000" data-origin="helm-cleanroom-artwork" data-style-contract="helm-openbridge-navigation-v1" data-family-refresh="beacon-style-refresh-v1" data-shape-family="beacon_stake" data-canonical-asset="BCNSTK83" data-canonical-revision="canonical-by-asset-v1" width="150" height="150" data-helm-proof-render="helm-canonical-art" data-helm-preview-source="canonical-art" data-canonical-source="assets/svg/helm_cleanroom/BCNSTK83.svg"><title>green/red stake</title><g stroke-linecap="round" stroke-linejoin="round"><rect x="29.1" y="9" width="5.8" height="19.6" rx="1.2" fill="var(--green)"/><rect x="29.1" y="28.6" width="5.8" height="19.6" rx="0" fill="var(--red)"/><rect x="30.3" y="48.2" width="3.4" height="4.8" rx="0.7" fill="var(--red)"/><rect x="23.7" y="45.8" width="16.6" height="3.3" rx="1" fill="var(--red)"/><path d="M30.4 9H33.6Q34.9 9 34.9 10.3V45.8H39.3Q40.3 45.8 40.3 46.8V48.1Q40.3 49.1 39.3 49.1H33.7V52.1Q33.7 53.1 32.7 53.1H31.3Q30.3 53.1 30.3 52.1V49.1H24.7Q23.7 49.1 23.7 48.1V46.8Q23.7 45.8 24.7 45.8H29.1V10.3Q29.1 9 30.4 9Z" fill="none" stroke="var(--black)" stroke-width="1.75"/><circle cx="32" cy="46.8" r="2.35" fill="var(--white)" stroke="var(--black)" stroke-width="1.25"/></g></svg>
