<svg xmlns="http://www.w3.org/2000/svg" viewBox="0 0 64 64" role="img" data-origin="generated-owned-artwork" data-style-contract="helm-openbridge-navigation-v1" data-repair-batch="standard-repair-batch55" style="--black:#000000;--white:#ffffff;--red:#EA5471;--green:#52E83B;--yellow:#F4DA48;--blue:#8FB5D9;--orange:#EB7D36;--magenta:#C545C3;--grey:#7D898C;--gray:#7D898C;--brown:#B19139;--ink:#000000" data-canonical-asset="BOYCON74" data-canonical-revision="canonical-by-asset-v1" width="150" height="150" data-helm-proof-render="helm-canonical-art" data-helm-preview-source="canonical-art" data-canonical-source="assets/svg/owned_repair_batch63/BOYCON74.svg"><title>BOYCON74 can/cone buoy parity repair candidate</title><g stroke-linecap="round" stroke-linejoin="round"><defs><clipPath id="clip_BOYCON74"><path d="M28 15 C30.5 12.5 33.5 12.5 36 15 C46 26 52 38 54 48 L10 48 C12 38 18 26 28 15 Z"/></clipPath></defs><rect x="12" y="12.00" width="40" height="8.00" fill="var(--green)" clip-path="url(#clip_BOYCON74)" data-pattern="horizontal-buoy-band"/><rect x="12" y="20.00" width="40" height="8.00" fill="var(--white)" clip-path="url(#clip_BOYCON74)" data-pattern="horizontal-buoy-band"/><rect x="12" y="28.00" width="40" height="8.00" fill="var(--green)" clip-path="url(#clip_BOYCON74)" data-pattern="horizontal-buoy-band"/><rect x="12" y="36.00" width="40" height="8.00" fill="var(--white)" clip-path="url(#clip_BOYCON74)" data-pattern="horizontal-buoy-band"/><rect x="12" y="44.00" width="40" height="8.00" fill="var(--green)" clip-path="url(#clip_BOYCON74)" data-pattern="horizontal-buoy-band"/><path d="M28 15 C30.5 12.5 33.5 12.5 36 15 C46 26 52 38 54 48 L10 48 C12 38 18 26 28 15 Z" fill="none" stroke="var(--black)" stroke-width="3"/><path id="straight-waterline" d="M8 48 H56" fill="none" stroke="var(--black)" stroke-width="3"/><circle id="outer-lid" cx="32" cy="48" r="5.4" fill="var(--black)" stroke="none"/><circle id="inner-lid-cutout" cx="32" cy="48" r="3.2" fill="var(--white)" stroke="none"/></g></svg>
