<svg xmlns="http://www.w3.org/2000/svg" viewBox="0 0 64 64" role="img" data-origin="generated-owned-artwork" data-style-contract="helm-openbridge-navigation-v1" data-repair-batch="standard-repair-batch57" style="--black:#000000;--white:#ffffff;--red:#EA5471;--green:#52E83B;--yellow:#F4DA48;--blue:#8FB5D9;--orange:#EB7D36;--magenta:#C545C3;--grey:#7D898C;--gray:#7D898C;--brown:#B19139;--ink:#000000" data-canonical-asset="BOYPIL78" data-canonical-revision="canonical-by-asset-v1" width="150" height="150" data-helm-proof-render="helm-canonical-art" data-helm-preview-source="canonical-art" data-canonical-source="assets/svg/owned_repair_batch65/BOYPIL78.svg"><title>BOYPIL78 pillar buoy parity repair candidate</title><g stroke-linecap="round" stroke-linejoin="round"><defs><clipPath id="clip_BOYPIL78"><path d="M17.5 54 L30.7 31.4 L34.6 12 L40.4 12 L40.4 35.1 L46 54 Z"/></clipPath></defs><rect x="14.00" y="12.00" width="9.00" height="8.40" fill="var(--red)" clip-path="url(#clip_BOYPIL78)" data-pattern="checkered-pillar-band"/><rect x="23.00" y="12.00" width="9.00" height="8.40" fill="var(--white)" clip-path="url(#clip_BOYPIL78)" data-pattern="checkered-pillar-band"/><rect x="32.00" y="12.00" width="9.00" height="8.40" fill="var(--red)" clip-path="url(#clip_BOYPIL78)" data-pattern="checkered-pillar-band"/><rect x="41.00" y="12.00" width="9.00" height="8.40" fill="var(--white)" clip-path="url(#clip_BOYPIL78)" data-pattern="checkered-pillar-band"/><rect x="14.00" y="20.40" width="9.00" height="8.40" fill="var(--white)" clip-path="url(#clip_BOYPIL78)" data-pattern="checkered-pillar-band"/><rect x="23.00" y="20.40" width="9.00" height="8.40" fill="var(--red)" clip-path="url(#clip_BOYPIL78)" data-pattern="checkered-pillar-band"/><rect x="32.00" y="20.40" width="9.00" height="8.40" fill="var(--white)" clip-path="url(#clip_BOYPIL78)" data-pattern="checkered-pillar-band"/><rect x="41.00" y="20.40" width="9.00" height="8.40" fill="var(--red)" clip-path="url(#clip_BOYPIL78)" data-pattern="checkered-pillar-band"/><rect x="14.00" y="28.80" width="9.00" height="8.40" fill="var(--red)" clip-path="url(#clip_BOYPIL78)" data-pattern="checkered-pillar-band"/><rect x="23.00" y="28.80" width="9.00" height="8.40" fill="var(--white)" clip-path="url(#clip_BOYPIL78)" data-pattern="checkered-pillar-band"/><rect x="32.00" y="28.80" width="9.00" height="8.40" fill="var(--red)" clip-path="url(#clip_BOYPIL78)" data-pattern="checkered-pillar-band"/><rect x="41.00" y="28.80" width="9.00" height="8.40" fill="var(--white)" clip-path="url(#clip_BOYPIL78)" data-pattern="checkered-pillar-band"/><rect x="14.00" y="37.20" width="9.00" height="8.40" fill="var(--white)" clip-path="url(#clip_BOYPIL78)" data-pattern="checkered-pillar-band"/><rect x="23.00" y="37.20" width="9.00" height="8.40" fill="var(--red)" clip-path="url(#clip_BOYPIL78)" data-pattern="checkered-pillar-band"/><rect x="32.00" y="37.20" width="9.00" height="8.40" fill="var(--white)" clip-path="url(#clip_BOYPIL78)" data-pattern="checkered-pillar-band"/><rect x="41.00" y="37.20" width="9.00" height="8.40" fill="var(--red)" clip-path="url(#clip_BOYPIL78)" data-pattern="checkered-pillar-band"/><rect x="14.00" y="45.60" width="9.00" height="8.40" fill="var(--red)" clip-path="url(#clip_BOYPIL78)" data-pattern="checkered-pillar-band"/><rect x="23.00" y="45.60" width="9.00" height="8.40" fill="var(--white)" clip-path="url(#clip_BOYPIL78)" data-pattern="checkered-pillar-band"/><rect x="32.00" y="45.60" width="9.00" height="8.40" fill="var(--red)" clip-path="url(#clip_BOYPIL78)" data-pattern="checkered-pillar-band"/><rect x="41.00" y="45.60" width="9.00" height="8.40" fill="var(--white)" clip-path="url(#clip_BOYPIL78)" data-pattern="checkered-pillar-band"/><path d="M17.5 54 L30.7 31.4 L34.6 12 L40.4 12 L40.4 35.1 L46 54 Z" fill="none" stroke="var(--black)" stroke-width="3"/><path d="M13.6 54 H28.6" fill="none" stroke="var(--black)" stroke-width="3"/><path d="M35.2 54 H49.4" fill="none" stroke="var(--black)" stroke-width="3"/><circle cx="32" cy="54" r="3.4" fill="var(--white)" stroke="var(--black)" stroke-width="2.2"/></g></svg>
