<svg xmlns="http://www.w3.org/2000/svg" viewBox="0 0 64 64" role="img" data-origin="generated-owned-artwork" data-style-contract="helm-openbridge-navigation-v1" data-repair-batch="crossx-dots-buirel04-black-v1" style="--black:#000000;--white:#ffffff;--red:#EA5471;--green:#52E83B;--yellow:#F4DA48;--blue:#8FB5D9;--orange:#EB7D36;--magenta:#C545C3;--grey:#7D898C;--gray:#7D898C;--brown:#B19139;--ink:#000000" data-canonical-asset="CROSSX02" data-canonical-revision="crossx-dots-buirel04-black-v1" width="150" height="150" data-helm-proof-render="helm-canonical-art" data-helm-preview-source="canonical-art" data-canonical-source="assets/svg/helm_crossx_dots_buirel04_black_v1/CROSSX02.svg">
  <title>CROSSX02 Helm dot matrix area pattern</title>
  <desc>General small dot pattern as a square field of dots; no enclosing square or grid lines.</desc>
  <g shape-rendering="geometricPrecision">
    <circle cx="18.0" cy="18.0" r="1.55" fill="var(--brown)" stroke="none"/>
    <circle cx="23.6" cy="18.0" r="1.55" fill="var(--brown)" stroke="none"/>
    <circle cx="29.2" cy="18.0" r="1.55" fill="var(--brown)" stroke="none"/>
    <circle cx="34.8" cy="18.0" r="1.55" fill="var(--brown)" stroke="none"/>
    <circle cx="40.4" cy="18.0" r="1.55" fill="var(--brown)" stroke="none"/>
    <circle cx="46.0" cy="18.0" r="1.55" fill="var(--brown)" stroke="none"/>
    <circle cx="18.0" cy="23.6" r="1.55" fill="var(--brown)" stroke="none"/>
    <circle cx="23.6" cy="23.6" r="1.55" fill="var(--brown)" stroke="none"/>
    <circle cx="29.2" cy="23.6" r="1.55" fill="var(--brown)" stroke="none"/>
    <circle cx="34.8" cy="23.6" r="1.55" fill="var(--brown)" stroke="none"/>
    <circle cx="40.4" cy="23.6" r="1.55" fill="var(--brown)" stroke="none"/>
    <circle cx="46.0" cy="23.6" r="1.55" fill="var(--brown)" stroke="none"/>
    <circle cx="18.0" cy="29.2" r="1.55" fill="var(--brown)" stroke="none"/>
    <circle cx="23.6" cy="29.2" r="1.55" fill="var(--brown)" stroke="none"/>
    <circle cx="29.2" cy="29.2" r="1.55" fill="var(--brown)" stroke="none"/>
    <circle cx="34.8" cy="29.2" r="1.55" fill="var(--brown)" stroke="none"/>
    <circle cx="40.4" cy="29.2" r="1.55" fill="var(--brown)" stroke="none"/>
    <circle cx="46.0" cy="29.2" r="1.55" fill="var(--brown)" stroke="none"/>
    <circle cx="18.0" cy="34.8" r="1.55" fill="var(--brown)" stroke="none"/>
    <circle cx="23.6" cy="34.8" r="1.55" fill="var(--brown)" stroke="none"/>
    <circle cx="29.2" cy="34.8" r="1.55" fill="var(--brown)" stroke="none"/>
    <circle cx="34.8" cy="34.8" r="1.55" fill="var(--brown)" stroke="none"/>
    <circle cx="40.4" cy="34.8" r="1.55" fill="var(--brown)" stroke="none"/>
    <circle cx="46.0" cy="34.8" r="1.55" fill="var(--brown)" stroke="none"/>
    <circle cx="18.0" cy="40.4" r="1.55" fill="var(--brown)" stroke="none"/>
    <circle cx="23.6" cy="40.4" r="1.55" fill="var(--brown)" stroke="none"/>
    <circle cx="29.2" cy="40.4" r="1.55" fill="var(--brown)" stroke="none"/>
    <circle cx="34.8" cy="40.4" r="1.55" fill="var(--brown)" stroke="none"/>
    <circle cx="40.4" cy="40.4" r="1.55" fill="var(--brown)" stroke="none"/>
    <circle cx="46.0" cy="40.4" r="1.55" fill="var(--brown)" stroke="none"/>
    <circle cx="18.0" cy="46.0" r="1.55" fill="var(--brown)" stroke="none"/>
    <circle cx="23.6" cy="46.0" r="1.55" fill="var(--brown)" stroke="none"/>
    <circle cx="29.2" cy="46.0" r="1.55" fill="var(--brown)" stroke="none"/>
    <circle cx="34.8" cy="46.0" r="1.55" fill="var(--brown)" stroke="none"/>
    <circle cx="40.4" cy="46.0" r="1.55" fill="var(--brown)" stroke="none"/>
    <circle cx="46.0" cy="46.0" r="1.55" fill="var(--brown)" stroke="none"/>
  </g>
</svg>
