<?xml version="1.0" encoding="UTF-8"?>
<svg xmlns="http://www.w3.org/2000/svg" viewBox="0 0 64 64" role="img" preserveAspectRatio="xMidYMid meet" shape-rendering="geometricPrecision" data-origin="generated-owned-artwork" data-source-boundary="generated_owned_helm_style_derived_from_promoted_s101_witness" data-cleanroom-rerender="s101-promoted-helm-derived-v3" data-generator="forge.s101_promoted_helm_derive" data-canonical-asset="DOMES001" data-style-contract="helm-openbridge-navigation-v1" data-s101-witness="s101-resolved:DOMES001.svg">
  <title>DOMES001 Helm-derived S-101 witness art</title>
  <desc>Separate Helm artifact derived from promoted S-101 witness s101-resolved:DOMES001.svg. Promotion kind=legacy-s101-cleanup; original viewBox=-3.13 -4.85 6.31 6.31.</desc>
<style><![CDATA[
    .layout,.pivotPoint{display:none}
    .sl,.f0{fill:none}
    .sCHBLK{stroke:#111111}.fCHBLK{fill:#111111}
    .sCHBRN{stroke:#9b6a27}.fCHBRN{fill:#9b6a27}
    .sCHMGD,.sCHMGF{stroke:#c035b0}.fCHMGD,.fCHMGF{fill:#c035b0}
    .sCHRED{stroke:#ef3340}.fCHRED{fill:#ef3340}
    .sCHGRN{stroke:#00a651}.fCHGRN{fill:#00a651}
    .sCHYLW{stroke:#f6d32d}.fCHYLW{fill:#f6d32d}
    .sCHWHT{stroke:#ffffff}.fCHWHT{fill:#ffffff}
    .sCHGRD{stroke:#7b6b2d}.fCHGRD{fill:#7b6b2d}
    .sCHGRF{stroke:#6f7f87}.fCHGRF{fill:#6f7f87}
    .sCHBLU{stroke:#1677c8}.fCHBLU{fill:#1677c8}
    .sLANDF{stroke:#9b6a27}.fLANDF{fill:#9b6a27}
    .sNINFO{stroke:#c035b0}.fNINFO{fill:#c035b0}
    .sTRFCD,.sTRFCF{stroke:#c035b0}.fTRFCD,.fTRFCF{fill:#c035b0}
    .sCURSR,.sSCLBR,.sCHCOR{stroke:#f07a18}.fCURSR,.fSCLBR,.fCHCOR{fill:#f07a18}
    .helm-derived-strokes *{
      stroke-width:0.07478519px !important;
      stroke-linecap:round;
      stroke-linejoin:round;
    }
  ]]></style>
  <g class="helm-derived-strokes" transform="matrix(8.55784469 0 0 8.55784469 31.78605388 46.50554675)">
<circle class="f0 sLANDF" stroke-width="0.32"  cx="-0.02" cy="-0.02" r="0.43"/>
  <path d=" M -0.44,-0.06 L -2.08,-0.06" class="sl f0 sLANDF" stroke-width="0.32" />
  <path d=" M -2.09,-0.05 L -2.19,-0.21 L -2.33,-0.55 L -2.45,-0.9 L -2.49,-1.2 L -2.49,-1.6 L -2.39,-2.02 L -2.21,-2.5 L -2.05,-2.8 L -1.77,-3.1 L -1.47,-3.36 L -1.19,-3.5 L -0.71,-3.68 L -0.31,-3.76 L 0.13,-3.8 L 0.62,-3.72 L 1.08,-3.58 L 1.54,-3.28 L 1.96,-2.88 L 2.18,-2.56 L 2.4,-2.14 L 2.52,-1.62 L 2.54,-1 L 2.44,-0.59 L 2.3,-0.25 L 2.16,-0.09" class="sl f0 sLANDF" stroke-width="0.32" />
  <path d=" M 0.4,-0.06 L 2.14,-0.06 L 2.17,-0.14" class="sl f0 sLANDF" stroke-width="0.32" />
  </g>
</svg>
