<?xml version="1.0" encoding="UTF-8"?>
<svg xmlns="http://www.w3.org/2000/svg" viewBox="0 0 64 64" role="img" preserveAspectRatio="xMidYMid meet" shape-rendering="geometricPrecision" data-origin="generated-owned-artwork" data-source-boundary="generated_owned_helm_style_derived_from_promoted_s101_witness" data-cleanroom-rerender="s101-promoted-helm-derived-v3" data-generator="forge.s101_promoted_helm_derive" data-canonical-asset="RFNERY11" data-style-contract="helm-openbridge-navigation-v1" data-s101-witness="s101-resolved:RFNERY11.svg">
  <title>RFNERY11 Helm-derived S-101 witness art</title>
  <desc>Separate Helm artifact derived from promoted S-101 witness s101-resolved:RFNERY11.svg. Promotion kind=symbol; original viewBox=-4.26 -4.52 8.68 8.68.</desc>
<style><![CDATA[
    .layout,.pivotPoint{display:none}
    .sl,.f0{fill:none}
    .sCHBLK{stroke:#111111}.fCHBLK{fill:#111111}
    .sCHBRN{stroke:#9b6a27}.fCHBRN{fill:#9b6a27}
    .sCHMGD,.sCHMGF{stroke:#c035b0}.fCHMGD,.fCHMGF{fill:#c035b0}
    .sCHRED{stroke:#ef3340}.fCHRED{fill:#ef3340}
    .sCHGRN{stroke:#00a651}.fCHGRN{fill:#00a651}
    .sCHYLW{stroke:#f6d32d}.fCHYLW{fill:#f6d32d}
    .sCHWHT{stroke:#ffffff}.fCHWHT{fill:#ffffff}
    .sCHGRD{stroke:#7b6b2d}.fCHGRD{fill:#7b6b2d}
    .sCHGRF{stroke:#6f7f87}.fCHGRF{fill:#6f7f87}
    .sCHBLU{stroke:#1677c8}.fCHBLU{fill:#1677c8}
    .sLANDF{stroke:#9b6a27}.fLANDF{fill:#9b6a27}
    .sNINFO{stroke:#c035b0}.fNINFO{fill:#c035b0}
    .sTRFCD,.sTRFCF{stroke:#c035b0}.fTRFCD,.fTRFCF{fill:#c035b0}
    .sCURSR,.sSCLBR,.sCHCOR{stroke:#f07a18}.fCURSR,.fSCLBR,.fCHCOR{fill:#f07a18}
    .helm-derived-strokes *{
      stroke-width:0.10287407px !important;
      stroke-linecap:round;
      stroke-linejoin:round;
    }
  ]]></style>
  <g class="helm-derived-strokes" transform="matrix(6.22119816 0 0 6.22119816 31.50230415 33.11981567)">
<defs>
    <clipPath id="s101_resolved_clip_RFNERY11">
      <path d=" M -0.51,2.3 L -0.51,-0.95 L 0.49,-0.95 L 0.49,2.3 L 0.36,1.92 L -0.01,1.8 L -0.33,1.92 L -0.51,2.3 Z"/>
      <path d=" M 0.55,-3.27 L 0.24,-3.08 L -0.08,-2.89 L -0.33,-2.58 L -0.51,-2.2 L -0.51,-1.83 L -0.45,-1.64 L -0.2,-1.52 L 0.11,-1.52 L 0.3,-1.64 L 0.42,-1.89 L 0.36,-2.2 L 0.24,-2.33 L 0.24,-2.58 L 0.24,-2.83 L 0.42,-3.02 L 0.55,-3.27"/>
    </clipPath>
  </defs>
  <g shape-rendering="geometricPrecision">
    <rect x="-0.51" y="-3.27" width="1.06" height="5.57" fill="#000000" clip-path="url(#s101_resolved_clip_RFNERY11)"/>
    <path d=" M -0.51,2.3 L -0.51,-0.95 L 0.49,-0.95 L 0.49,2.3 L 0.36,1.92 L -0.01,1.8 L -0.33,1.92 L -0.51,2.3 Z" fill="none" stroke="#000000" stroke-width="0.64" stroke-linecap="round" stroke-linejoin="round"/>
    <path d=" M 0.55,-3.27 L 0.24,-3.08 L -0.08,-2.89 L -0.33,-2.58 L -0.51,-2.2 L -0.51,-1.83 L -0.45,-1.64 L -0.2,-1.52 L 0.11,-1.52 L 0.3,-1.64 L 0.42,-1.89 L 0.36,-2.2 L 0.24,-2.33 L 0.24,-2.58 L 0.24,-2.83 L 0.42,-3.02 L 0.55,-3.27" fill="none" stroke="#000000" stroke-width="0.64" stroke-linecap="round" stroke-linejoin="round"/>
    <path d=" M -1.52,2.26 L 1.43,2.26" fill="none" stroke="#000000" stroke-width="0.64" stroke-linecap="round" stroke-linejoin="round"/>
    <circle cx="0.08" cy="-0.18" r="3.7" fill="none" stroke="#000000" stroke-width="0.64"/>
  </g>
  </g>
</svg>
