<?xml version="1.0" encoding="UTF-8"?>
<svg xmlns="http://www.w3.org/2000/svg" viewBox="0 0 64 64" role="img" preserveAspectRatio="xMidYMid meet" shape-rendering="geometricPrecision" data-origin="generated-owned-artwork" data-source-boundary="generated_owned_helm_style_derived_from_promoted_s101_witness" data-cleanroom-rerender="s101-promoted-helm-derived-v3" data-generator="forge.s101_promoted_helm_derive" data-canonical-asset="TWRDEF51" data-style-contract="helm-openbridge-navigation-v1" data-s101-witness="s101-resolved:TWRDEF51.svg">
  <title>TWRDEF51 Helm-derived S-101 witness art</title>
  <desc>Separate Helm artifact derived from promoted S-101 witness s101-resolved:TWRDEF51.svg. Promotion kind=symbol; original viewBox=-7.74 -7.58 15.31 15.31.</desc>
<style><![CDATA[
    .layout,.pivotPoint{display:none}
    .sl,.f0{fill:none}
    .sCHBLK{stroke:#111111}.fCHBLK{fill:#111111}
    .sCHBRN{stroke:#9b6a27}.fCHBRN{fill:#9b6a27}
    .sCHMGD,.sCHMGF{stroke:#c035b0}.fCHMGD,.fCHMGF{fill:#c035b0}
    .sCHRED{stroke:#ef3340}.fCHRED{fill:#ef3340}
    .sCHGRN{stroke:#00a651}.fCHGRN{fill:#00a651}
    .sCHYLW{stroke:#f6d32d}.fCHYLW{fill:#f6d32d}
    .sCHWHT{stroke:#ffffff}.fCHWHT{fill:#ffffff}
    .sCHGRD{stroke:#7b6b2d}.fCHGRD{fill:#7b6b2d}
    .sCHGRF{stroke:#6f7f87}.fCHGRF{fill:#6f7f87}
    .sCHBLU{stroke:#1677c8}.fCHBLU{fill:#1677c8}
    .sLANDF{stroke:#9b6a27}.fLANDF{fill:#9b6a27}
    .sNINFO{stroke:#c035b0}.fNINFO{fill:#c035b0}
    .sTRFCD,.sTRFCF{stroke:#c035b0}.fTRFCD,.fTRFCF{fill:#c035b0}
    .sCURSR,.sSCLBR,.sCHCOR{stroke:#f07a18}.fCURSR,.fSCLBR,.fCHCOR{fill:#f07a18}
    .helm-derived-strokes *{
      stroke-width:0.18145185px !important;
      stroke-linecap:round;
      stroke-linejoin:round;
    }
  ]]></style>
  <g class="helm-derived-strokes" transform="matrix(3.52710647 0 0 3.52710647 32.29980405 31.73546702)">
<path d=" M -1.23,-5.32 L 0,-6.94 L 1.23,-5.32" class="sl f0 sTRFCD" stroke-width="0.96" />
  <path d=" M -2.14,-4.16 L -2.97,-3 L -1.49,-3" class="sl f0 sTRFCD" stroke-width="0.96" />
  <path d=" M 1.37,-3.04 L 3,-3.04 L 2.06,-4.27" class="sl f0 sTRFCD" stroke-width="0.96" />
  <path d=" M -1.52,-1.12 L -1.52,1.01" class="sl f0 sTRFCD" stroke-width="0.96" />
  <path d=" M 1.41,-1.18 L 1.41,0.93" class="sl f0 sTRFCD" stroke-width="0.96" />
  <path d=" M -1.2,5.39 L 0.03,7.09 L 1.26,5.39" class="sl f0 sTRFCD" stroke-width="0.96" />
  <path d=" M -1.52,2.96 L -3.11,2.96 L -2.17,4.16" class="sl f0 sTRFCD" stroke-width="0.96" />
  <path d=" M 1.44,2.96 L 2.93,2.96 L 2.09,4.27" class="sl f0 sTRFCD" stroke-width="0.96" />
  <path d=" M -6.89,-1.35 L -6.76,-1.63 L -6.63,-1.88 L -6.46,-2.05 L -6.29,-2.22 L -6.03,-2.31 L -5.8,-2.29 L -5.5,-2.2 L -5.22,-2.14 L -4.99,-1.8 L -4.81,-1.61 L -4.69,-1.39 L -4.69,-1.14 L -4.81,-0.9 L -4.94,-0.69 L -5.14,-0.45 L -5.37,-0.2 L -5.58,0.06 L -5.71,0.25 L -5.82,0.42 L -5.84,0.64 L -5.84,0.87 L -5.84,1.04 L -5.82,1.26 L -5.82,1.28" class="sl f0 sCHMGD" stroke-width="0.32" />
  <path d=" M -6.03,2.12 L -5.5,2.12" class="sl f0 sCHMGD" stroke-width="0.64" />
  <path d=" M 4.52,-1.38 L 4.65,-1.66 L 4.78,-1.91 L 4.95,-2.08 L 5.12,-2.25 L 5.38,-2.34 L 5.61,-2.32 L 5.91,-2.23 L 6.19,-2.17 L 6.42,-1.83 L 6.6,-1.64 L 6.72,-1.42 L 6.72,-1.17 L 6.6,-0.93 L 6.47,-0.72 L 6.27,-0.48 L 6.04,-0.23 L 5.83,0.03 L 5.7,0.22 L 5.59,0.39 L 5.57,0.61 L 5.57,0.84 L 5.57,1.01 L 5.59,1.23 L 5.59,1.25" class="sl f0 sCHMGD" stroke-width="0.32" />
  <path d=" M 5.38,2.09 L 5.91,2.09" class="sl f0 sCHMGD" stroke-width="0.64" />
  </g>
</svg>
