<svg data-human-approved-by="Steve" data-human-approved-date="2026-07-04" data-candidate-revision="beacon-style-refresh-v1-human-approved" xmlns="http://www.w3.org/2000/svg" viewBox="0 0 64 64" role="img" style="--black:#050505;--white:#b9b0a1;--red:#8f3338;--green:#3f7c43;--yellow:#8c7a34;--blue:#455e76;--orange:#7f4a2b;--magenta:#6c3f6e;--grey:#4e5452;--gray:#4e5452;--brown:#66502f;--ink:#050505" data-origin="helm-cleanroom-artwork" data-style-contract="helm-openbridge-navigation-v1" data-family-refresh="beacon-style-refresh-v1" data-shape-family="beacon_general" data-canonical-asset="BCNGEN79" data-canonical-revision="canonical-by-asset-v1" width="150" height="150" data-helm-proof-render="helm-canonical-art" data-helm-preview-source="canonical-art" data-canonical-source="assets/svg/helm_cleanroom/BCNGEN79.svg"><title>orange beacon</title><g stroke-linecap="round" stroke-linejoin="round"><rect x="25" y="11" width="14" height="35" rx="2.2" fill="var(--orange)"/><rect x="18" y="46" width="28" height="4.2" rx="1.5" fill="var(--orange)"/><circle cx="32" cy="46.5" r="7.2" fill="var(--orange)"/><path d="M27.2 11H36.8Q39 11 39 13.2V45.8H44.5Q46 45.8 46 47.3V48.7Q46 50.2 44.5 50.2H38.5C37.1 52.2 34.8 53.7 32 53.7C29.2 53.7 26.9 52.2 25.5 50.2H19.5Q18 50.2 18 48.7V47.3Q18 45.8 19.5 45.8H25V13.2Q25 11 27.2 11Z" fill="none" stroke="var(--black)" stroke-width="1.9"/><circle cx="32" cy="46.5" r="4.6" fill="var(--white)" stroke="var(--black)" stroke-width="1.6"/></g></svg>
