<svg xmlns="http://www.w3.org/2000/svg" viewBox="0 0 64 64" role="img" data-origin="generated-owned-artwork" data-style-contract="helm-openbridge-navigation-v1" data-repair-batch="standard-repair-batch55" style="--black:#050505;--white:#b9b0a1;--red:#8f3338;--green:#3f7c43;--yellow:#8c7a34;--blue:#455e76;--orange:#7f4a2b;--magenta:#6c3f6e;--grey:#4e5452;--gray:#4e5452;--brown:#66502f;--ink:#050505" data-canonical-asset="BOYCON67" data-canonical-revision="canonical-by-asset-v1" width="150" height="150" data-helm-proof-render="helm-canonical-art" data-helm-preview-source="canonical-art" data-canonical-source="assets/svg/owned_repair_batch63/BOYCON67.svg"><title>BOYCON67 can/cone buoy parity repair candidate</title><g stroke-linecap="round" stroke-linejoin="round"><defs><clipPath id="clip_BOYCON67"><path d="M28 15 C30.5 12.5 33.5 12.5 36 15 C46 26 52 38 54 48 L10 48 C12 38 18 26 28 15 Z"/></clipPath></defs><rect x="12" y="12.00" width="40" height="13.33" fill="var(--green)" clip-path="url(#clip_BOYCON67)" data-pattern="horizontal-buoy-band"/><rect x="12" y="25.33" width="40" height="13.33" fill="var(--red)" clip-path="url(#clip_BOYCON67)" data-pattern="horizontal-buoy-band"/><rect x="12" y="38.67" width="40" height="13.33" fill="var(--green)" clip-path="url(#clip_BOYCON67)" data-pattern="horizontal-buoy-band"/><path d="M28 15 C30.5 12.5 33.5 12.5 36 15 C46 26 52 38 54 48 L10 48 C12 38 18 26 28 15 Z" fill="none" stroke="var(--black)" stroke-width="3"/><path id="straight-waterline" d="M8 48 H56" fill="none" stroke="var(--black)" stroke-width="3"/><circle id="outer-lid" cx="32" cy="48" r="5.4" fill="var(--black)" stroke="none"/><circle id="inner-lid-cutout" cx="32" cy="48" r="3.2" fill="var(--white)" stroke="none"/></g></svg>
