<svg xmlns="http://www.w3.org/2000/svg" viewBox="0 0 64 64" role="img" data-origin="generated-owned-artwork" data-style-contract="helm-openbridge-navigation-v1" data-repair-batch="crossx-dots-buirel04-black-v1" style="--black:#050505;--white:#b9b0a1;--red:#8f3338;--green:#3f7c43;--yellow:#8c7a34;--blue:#455e76;--orange:#7f4a2b;--magenta:#6c3f6e;--grey:#4e5452;--gray:#4e5452;--brown:#66502f;--ink:#050505" data-canonical-asset="CROSSX02" data-canonical-revision="crossx-dots-buirel04-black-v1" width="150" height="150" data-helm-proof-render="helm-canonical-art" data-helm-preview-source="canonical-art" data-canonical-source="assets/svg/helm_crossx_dots_buirel04_black_v1/CROSSX02.svg">
  <title>CROSSX02 Helm dot matrix area pattern</title>
  <desc>General small dot pattern as a square field of dots; no enclosing square or grid lines.</desc>
  <g shape-rendering="geometricPrecision">
    <circle cx="18.0" cy="18.0" r="1.55" fill="var(--brown)" stroke="none"/>
    <circle cx="23.6" cy="18.0" r="1.55" fill="var(--brown)" stroke="none"/>
    <circle cx="29.2" cy="18.0" r="1.55" fill="var(--brown)" stroke="none"/>
    <circle cx="34.8" cy="18.0" r="1.55" fill="var(--brown)" stroke="none"/>
    <circle cx="40.4" cy="18.0" r="1.55" fill="var(--brown)" stroke="none"/>
    <circle cx="46.0" cy="18.0" r="1.55" fill="var(--brown)" stroke="none"/>
    <circle cx="18.0" cy="23.6" r="1.55" fill="var(--brown)" stroke="none"/>
    <circle cx="23.6" cy="23.6" r="1.55" fill="var(--brown)" stroke="none"/>
    <circle cx="29.2" cy="23.6" r="1.55" fill="var(--brown)" stroke="none"/>
    <circle cx="34.8" cy="23.6" r="1.55" fill="var(--brown)" stroke="none"/>
    <circle cx="40.4" cy="23.6" r="1.55" fill="var(--brown)" stroke="none"/>
    <circle cx="46.0" cy="23.6" r="1.55" fill="var(--brown)" stroke="none"/>
    <circle cx="18.0" cy="29.2" r="1.55" fill="var(--brown)" stroke="none"/>
    <circle cx="23.6" cy="29.2" r="1.55" fill="var(--brown)" stroke="none"/>
    <circle cx="29.2" cy="29.2" r="1.55" fill="var(--brown)" stroke="none"/>
    <circle cx="34.8" cy="29.2" r="1.55" fill="var(--brown)" stroke="none"/>
    <circle cx="40.4" cy="29.2" r="1.55" fill="var(--brown)" stroke="none"/>
    <circle cx="46.0" cy="29.2" r="1.55" fill="var(--brown)" stroke="none"/>
    <circle cx="18.0" cy="34.8" r="1.55" fill="var(--brown)" stroke="none"/>
    <circle cx="23.6" cy="34.8" r="1.55" fill="var(--brown)" stroke="none"/>
    <circle cx="29.2" cy="34.8" r="1.55" fill="var(--brown)" stroke="none"/>
    <circle cx="34.8" cy="34.8" r="1.55" fill="var(--brown)" stroke="none"/>
    <circle cx="40.4" cy="34.8" r="1.55" fill="var(--brown)" stroke="none"/>
    <circle cx="46.0" cy="34.8" r="1.55" fill="var(--brown)" stroke="none"/>
    <circle cx="18.0" cy="40.4" r="1.55" fill="var(--brown)" stroke="none"/>
    <circle cx="23.6" cy="40.4" r="1.55" fill="var(--brown)" stroke="none"/>
    <circle cx="29.2" cy="40.4" r="1.55" fill="var(--brown)" stroke="none"/>
    <circle cx="34.8" cy="40.4" r="1.55" fill="var(--brown)" stroke="none"/>
    <circle cx="40.4" cy="40.4" r="1.55" fill="var(--brown)" stroke="none"/>
    <circle cx="46.0" cy="40.4" r="1.55" fill="var(--brown)" stroke="none"/>
    <circle cx="18.0" cy="46.0" r="1.55" fill="var(--brown)" stroke="none"/>
    <circle cx="23.6" cy="46.0" r="1.55" fill="var(--brown)" stroke="none"/>
    <circle cx="29.2" cy="46.0" r="1.55" fill="var(--brown)" stroke="none"/>
    <circle cx="34.8" cy="46.0" r="1.55" fill="var(--brown)" stroke="none"/>
    <circle cx="40.4" cy="46.0" r="1.55" fill="var(--brown)" stroke="none"/>
    <circle cx="46.0" cy="46.0" r="1.55" fill="var(--brown)" stroke="none"/>
  </g>
</svg>
