<?xml version="1.0" encoding="UTF-8"?>
<svg xmlns="http://www.w3.org/2000/svg" viewBox="0 0 64 64" role="img" preserveAspectRatio="xMidYMid meet" shape-rendering="geometricPrecision" data-origin="generated-owned-artwork" data-source-boundary="generated_owned_helm_style_derived_from_promoted_s101_witness" data-cleanroom-rerender="s101-promoted-helm-derived-v3" data-generator="forge.s101_promoted_helm_derive" data-canonical-asset="DOMES011" data-style-contract="helm-openbridge-navigation-v1" data-s101-witness="s101-resolved:DOMES011.svg">
  <title>DOMES011 Helm-derived S-101 witness art</title>
  <desc>Separate Helm artifact derived from promoted S-101 witness s101-resolved:DOMES011.svg. Promotion kind=legacy-s101-cleanup; original viewBox=-3.12 -4.76 6.31 6.31.</desc>
<style><![CDATA[
    .layout,.pivotPoint{display:none}
    .sl,.f0{fill:none}
    .sCHBLK{stroke:#111111}.fCHBLK{fill:#111111}
    .sCHBRN{stroke:#9b6a27}.fCHBRN{fill:#9b6a27}
    .sCHMGD,.sCHMGF{stroke:#c035b0}.fCHMGD,.fCHMGF{fill:#c035b0}
    .sCHRED{stroke:#ef3340}.fCHRED{fill:#ef3340}
    .sCHGRN{stroke:#00a651}.fCHGRN{fill:#00a651}
    .sCHYLW{stroke:#f6d32d}.fCHYLW{fill:#f6d32d}
    .sCHWHT{stroke:#ffffff}.fCHWHT{fill:#ffffff}
    .sCHGRD{stroke:#7b6b2d}.fCHGRD{fill:#7b6b2d}
    .sCHGRF{stroke:#6f7f87}.fCHGRF{fill:#6f7f87}
    .sCHBLU{stroke:#1677c8}.fCHBLU{fill:#1677c8}
    .sLANDF{stroke:#9b6a27}.fLANDF{fill:#9b6a27}
    .sNINFO{stroke:#c035b0}.fNINFO{fill:#c035b0}
    .sTRFCD,.sTRFCF{stroke:#c035b0}.fTRFCD,.fTRFCF{fill:#c035b0}
    .sCURSR,.sSCLBR,.sCHCOR{stroke:#f07a18}.fCURSR,.fSCLBR,.fCHCOR{fill:#f07a18}
    .helm-derived-strokes *{
      stroke-width:0.07478519px !important;
      stroke-linecap:round;
      stroke-linejoin:round;
    }
  ]]></style>
  <g class="helm-derived-strokes" transform="matrix(8.55784469 0 0 8.55784469 31.70047544 45.73534073)">
<defs>
    <clipPath id="s101_resolved_clip_DOMES011">
      <path d=" M -2.08,0.04 L -2.18,-0.12 L -2.32,-0.46 L -2.44,-0.81 L -2.48,-1.11 L -2.48,-1.51 L -2.38,-1.93 L -2.2,-2.41 L -2.04,-2.71 L -1.76,-3.01 L -1.46,-3.27 L -1.18,-3.41 L -0.7,-3.59 L -0.3,-3.67 L 0.14,-3.71 L 0.63,-3.63 L 1.09,-3.49 L 1.55,-3.19 L 1.97,-2.79 L 2.19,-2.47 L 2.41,-2.05 L 2.53,-1.53 L 2.55,-0.91 L 2.45,-0.5 L 2.31,-0.16 L 2.17,0"/>
    </clipPath>
  </defs>
  <g shape-rendering="geometricPrecision">
    <rect x="-2.48" y="-3.71" width="5.03" height="3.75" fill="#000000" clip-path="url(#s101_resolved_clip_DOMES011)"/>
    <path d=" M -0.43,0.03 L -2.07,0.03" fill="none" stroke="#000000" stroke-width="0.64" stroke-linecap="round" stroke-linejoin="round"/>
    <path d=" M -2.08,0.04 L -2.18,-0.12 L -2.32,-0.46 L -2.44,-0.81 L -2.48,-1.11 L -2.48,-1.51 L -2.38,-1.93 L -2.2,-2.41 L -2.04,-2.71 L -1.76,-3.01 L -1.46,-3.27 L -1.18,-3.41 L -0.7,-3.59 L -0.3,-3.67 L 0.14,-3.71 L 0.63,-3.63 L 1.09,-3.49 L 1.55,-3.19 L 1.97,-2.79 L 2.19,-2.47 L 2.41,-2.05 L 2.53,-1.53 L 2.55,-0.91 L 2.45,-0.5 L 2.31,-0.16 L 2.17,0" fill="none" stroke="#000000" stroke-width="0.64" stroke-linecap="round" stroke-linejoin="round"/>
    <path d=" M 0.41,0.03 L 2.15,0.03 L 2.18,-0.05" fill="none" stroke="#000000" stroke-width="0.64" stroke-linecap="round" stroke-linejoin="round"/>
    <circle cx="-0.01" cy="0.07" r="0.43" fill="#ffffff" stroke="#000000" stroke-width="0.32"/>
  </g>
  </g>
</svg>
