<?xml version="1.0" encoding="UTF-8"?>
<svg xmlns="http://www.w3.org/2000/svg" viewBox="0 0 64 64" role="img" preserveAspectRatio="xMidYMid meet" shape-rendering="geometricPrecision" data-origin="generated-owned-artwork" data-source-boundary="generated_owned_helm_style_derived_from_promoted_s101_witness" data-cleanroom-rerender="s101-promoted-helm-derived-v3" data-generator="forge.s101_promoted_helm_derive" data-canonical-asset="HILTOP01" data-style-contract="helm-openbridge-navigation-v1" data-s101-witness="s101-resolved:HILTOP01.svg">
  <title>HILTOP01 Helm-derived S-101 witness art</title>
  <desc>Separate Helm artifact derived from promoted S-101 witness s101-resolved:HILTOP01.svg. Promotion kind=symbol; original viewBox=-5.72 -5.885 11.35 11.35.</desc>
<style><![CDATA[
    .layout,.pivotPoint{display:none}
    .sl,.f0{fill:none}
    .sCHBLK{stroke:#111111}.fCHBLK{fill:#111111}
    .sCHBRN{stroke:#9b6a27}.fCHBRN{fill:#9b6a27}
    .sCHMGD,.sCHMGF{stroke:#c035b0}.fCHMGD,.fCHMGF{fill:#c035b0}
    .sCHRED{stroke:#ef3340}.fCHRED{fill:#ef3340}
    .sCHGRN{stroke:#00a651}.fCHGRN{fill:#00a651}
    .sCHYLW{stroke:#f6d32d}.fCHYLW{fill:#f6d32d}
    .sCHWHT{stroke:#ffffff}.fCHWHT{fill:#ffffff}
    .sCHGRD{stroke:#7b6b2d}.fCHGRD{fill:#7b6b2d}
    .sCHGRF{stroke:#6f7f87}.fCHGRF{fill:#6f7f87}
    .sCHBLU{stroke:#1677c8}.fCHBLU{fill:#1677c8}
    .sLANDF{stroke:#9b6a27}.fLANDF{fill:#9b6a27}
    .sNINFO{stroke:#c035b0}.fNINFO{fill:#c035b0}
    .sTRFCD,.sTRFCF{stroke:#c035b0}.fTRFCD,.fTRFCF{fill:#c035b0}
    .sCURSR,.sSCLBR,.sCHCOR{stroke:#f07a18}.fCURSR,.fSCLBR,.fCHCOR{fill:#f07a18}
    .helm-derived-strokes *{
      stroke-width:0.13451852px !important;
      stroke-linecap:round;
      stroke-linejoin:round;
    }
  ]]></style>
  <g class="helm-derived-strokes" transform="matrix(4.75770925 0 0 4.75770925 32.21409692 32.99911894)">
<path d=" M 2.63,-0.77 L 2.87,0.08 L 4.99,-1.01 L 2.63,-0.77 Z" class="fLANDF"/>
  <path d=" M 2.63,0.52 L 2.09,1.21 L 4.3,2.36 L 2.63,0.52 Z" class="fLANDF"/>
  <path d=" M -1.97,1.32 L -2.52,0.62 L -4.14,2.52 L -1.97,1.32 Z" class="fLANDF"/>
  <path d=" M -0.28,1.84 L -1.11,1.54 L -1.61,3.97 L -0.28,1.84 Z" class="fLANDF"/>
  <path d=" M 1.36,1.33 L 0.54,1.74 L 2.03,3.75 L 1.36,1.33 Z" class="fLANDF"/>
  <path d=" M 1.4,-1.8 L 2.1,-1.24 L 3.26,-3.44 L 1.43,-1.79 L 1.4,-1.8 Z" class="fLANDF"/>
  <path d=" M -2.82,0.01 L -2.58,-0.87 L -5.08,-1.11 L -2.82,0.01 Z" class="fLANDF"/>
  <path d=" M -0.38,-1.83 L 0.53,-1.99 L -0.36,-4.39 L -0.4,-1.82 L -0.38,-1.83 Z" class="fLANDF"/>
  <path d=" M -1.97,-1.12 L -1.24,-1.62 L -3.05,-3.42 L -1.98,-1.13 L -1.97,-1.12 Z" class="fLANDF"/>
  </g>
</svg>
