<?xml version="1.0" encoding="UTF-8" standalone="no"?>
<!-- Created with Pixodesk SVG (https://pixodesk.com) -->
<svg xmlns="http://www.w3.org/2000/svg" viewBox="0 0 64 64" text-rendering="geometricPrecision" shape-rendering="geometricPrecision" style="--black:#050505;--white:#b9b0a1;--red:#8f3338;--green:#3f7c43;--yellow:#8c7a34;--blue:#455e76;--orange:#7f4a2b;--magenta:#6c3f6e;--grey:#4e5452;--gray:#4e5452;--brown:#66502f;--ink:#050505" data-canonical-asset="NMKINF43" data-canonical-revision="canonical-by-asset-v1" width="150" height="150" data-helm-proof-render="helm-canonical-art" data-helm-preview-source="canonical-art" data-canonical-source="assets/svg/human_approved_nmkinf/NMKINF43.svg">
  <g stroke-linecap="round" stroke-linejoin="round">
    <rect fill="var(--blue)" stroke="var(--black)" stroke-width="1.8" rx="3" ry="0" x="10" y="10" width="44" height="44"/>
  </g>
  <path fill="var(--white)" fill-rule="evenodd" stroke="var(--white)" stroke-width="0.2157" stroke-miterlimit="2.613" transform="translate(-1.1483, -9.4312)scale(0.35, 0.3504)" d="M137.623,148.8574L136.4237,149.0405L135.2244,149.1852L133.9935,149.2553L132.7942,149.2553L131.5599,149.1456L130.3651,149.001L129.1659,148.7127L128.0051,148.3488L123.4309,146.6456L122.2712,146.3179L121.0753,146.0285L119.876,145.8839L118.6417,145.7754L116.2126,145.7403L115.0167,145.7754L113.7824,145.9189L112.5831,146.0986L111.3884,146.3924L110.2242,146.7552L109.103,147.1542L106.8142,148.0606L105.6534,148.4584L104.4937,148.8213L103.2944,149.0756L102.0997,149.2553L100.9004,149.3999L99.6661,149.4395L97.2359,149.2553L96.0366,149.0756L94.8418,148.7862L93.681,148.4584L92.5168,148.0245L90.271,147.1542L89.1068,146.7552L87.9472,146.3924L86.7513,146.0997L85.552,145.9199L84.3177,145.7754L83.1229,145.7041L80.6893,145.7754L79.455,145.8839L78.2591,146.0285L77.0598,146.3179L75.9002,146.6456L71.3294,148.3488L70.1652,148.7127L68.9704,149.001L67.7711,149.1456L66.5368,149.2553L65.3409,149.2553L64.1066,149.1852L62.9118,149.0405L61.7126,148.8574L61.6775,149.5096L61.751,150.1267L61.966,150.7437L62.2941,151.3213L62.6924,151.8299L63.1653,152.2673L63.7434,152.5916L64.3612,152.8098L64.9778,152.8844L65.6306,152.8844L66.9385,152.8098L68.2441,152.6301L69.5134,152.4119L70.7829,152.083L72.0172,151.7202L74.4859,150.8884L75.6807,150.416L76.915,149.982L78.1494,149.6542L79.455,149.3999L80.7244,149.2202L82.0323,149.1456L83.3379,149.1852L84.6073,149.3649L85.9152,149.5842L87.1495,149.9074L88.419,150.2713L89.6533,150.7087L92.0835,151.6151L93.2783,152.083L94.5126,152.447L95.7831,152.7363L97.0909,152.9544L98.3605,153.0641L100.974,153.0641L102.2784,152.9544L103.5479,152.7363L104.8173,152.447L106.0528,152.048L107.2871,151.6151L109.7162,150.7087L112.1849,149.9074L113.4543,149.5842L114.7237,149.3649L116.0327,149.2202L117.3021,149.1456L118.6066,149.2202L119.9156,149.3999L121.1851,149.6542L122.416,149.982L123.6504,150.416L124.8847,150.8884L127.3183,151.7202L128.5877,152.083L129.8571,152.4119L131.1266,152.6301L132.3959,152.8098L133.7005,152.8844L134.3533,152.8844L135.0095,152.8098L135.6261,152.5916L136.169,152.2673L136.6771,151.8299L137.0754,151.3223L137.3684,150.7437L137.5834,150.1267L137.6581,149.5096L137.623,148.8574zM137.623,148.8574"/>
  <path fill="var(--white)" fill-rule="evenodd" stroke="var(--white)" stroke-width="0.2157" stroke-miterlimit="2.613" transform="translate(-1.1483, -9.4312)scale(0.35, 0.3504)" d="M92.5564,102.6534L93.1731,95.1499L93.1346,94.5679L92.9196,94.0604L92.5564,93.6264L92.0835,93.3371L91.5405,93.1889L90.9589,93.2286L90.4509,93.4432L90.0131,93.8061L89.7246,94.2784L89.5798,94.8222L89.3603,97.5053L48.033,97.5053L48.033,99.9736L89.1464,99.9736L88.962,102.3652L88.9971,102.9472L89.2166,103.4547L89.5798,103.8887L90.0527,104.1814L90.5958,104.3216L91.1773,104.2865L91.6853,104.0718L92.1186,103.709L92.4081,103.2354L92.5564,102.6534zM92.5564,102.6534"/>
  <path fill="var(--white)" fill-rule="evenodd" stroke="var(--white)" stroke-width="0.2157" stroke-miterlimit="2.613" transform="translate(-1.1483, -9.4312)scale(0.35, 0.3504)" d="M121.5833,93.0444L90.8141,95.7636L91.3221,101.748L122.0913,99.0638L121.5833,93.0444zM121.5833,93.0444"/>
  <path fill="var(--white)" fill-rule="evenodd" stroke="var(--white)" stroke-width="0.2157" stroke-miterlimit="2.613" transform="translate(-1.1483, -9.4312)scale(0.35, 0.3504)" d="M124.8496,96.0564L124.775,95.2596L124.4502,94.5328L123.9785,93.9157L123.3607,93.4432L122.6344,93.154L121.8379,93.0444L121.0753,93.154L120.349,93.4432L119.6973,93.9157L119.2244,94.5328L118.9347,95.2596L118.8261,96.0564L118.9347,96.8532L119.2244,97.5799L119.6973,98.197L120.349,98.666L121.0753,98.9586L121.8379,99.0638L122.6344,98.9586L123.3607,98.666L123.9785,98.197L124.4502,97.5799L124.775,96.8532L124.8496,96.0564zM124.8496,96.0564"/>
  <path fill="var(--white)" fill-rule="evenodd" stroke="var(--white)" stroke-width="0.2157" stroke-miterlimit="2.613" transform="translate(-1.1483, -9.4312)scale(0.35, 0.3504)" d="M127.9349,84.6695L127.8614,83.6534L127.5717,82.6735L127.169,81.7671L126.5524,80.8957L125.8645,80.2086L124.9933,79.5915L124.0871,79.1575L123.1073,78.9043L122.0913,78.8297L121.0753,78.9043L120.0605,79.1575L119.1542,79.5915L118.3181,80.2086L117.5918,80.8957L117.0136,81.7671L116.5758,82.6735L116.3224,83.6534L116.2126,84.6695L116.3224,85.6855L116.5758,86.7005L117.0136,87.6069L117.5918,88.4388L118.3181,89.1655L119.1542,89.7441L120.0605,90.1815L121.0753,90.4347L122.0913,90.5443L123.1073,90.4347L124.0871,90.1815L124.9933,89.7441L125.8645,89.1655L126.5524,88.4388L127.169,87.6069L127.5717,86.7005L127.8614,85.6855L127.9349,84.6695zM127.9349,84.6695"/>
  <path fill="var(--white)" fill-rule="evenodd" stroke="var(--white)" stroke-width="0.2157" stroke-miterlimit="2.613" transform="translate(-1.1483, -9.4312)scale(0.35, 0.3504)" d="M127.7867,98.7395L127.677,97.6149L127.3534,96.5638L126.8454,95.5839L126.119,94.7125L125.2479,93.9892L124.267,93.4432L123.1808,93.1189L122.0913,93.0093L120.9667,93.1189L119.876,93.4432L118.8997,93.9892L118.0251,94.7125L117.3372,95.5839L116.7941,96.5638L116.466,97.6149L116.3574,98.7395L116.3574,119.2674L116.466,120.3886L116.7941,121.4781L117.3372,122.4546L118.0251,123.326L118.8997,124.0166L119.876,124.5602L120.9667,124.888L122.0913,124.9942L123.1808,124.888L124.267,124.5602L125.2479,124.0166L126.119,123.326L126.8454,122.4546L127.3534,121.4781L127.677,120.3886L127.7867,119.2674L127.7867,98.7395zM127.7867,98.7395"/>
  <path fill="var(--white)" fill-rule="evenodd" stroke="var(--white)" stroke-width="0.2157" stroke-miterlimit="2.613" transform="translate(-1.1483, -9.4312)scale(0.35, 0.3504)" d="M61.7126,141.2048L61.6775,141.8569L61.751,142.5089L61.966,143.1261L62.2941,143.7082L62.6935,144.2168L63.1653,144.6497L63.7434,144.9786L64.3612,145.1967L64.9778,145.2668L65.6306,145.2317L66.9396,145.1967L68.2441,145.0136L69.5134,144.7943L70.7829,144.47L72.0172,144.1072L74.4859,143.2358L75.6807,142.7632L76.915,142.3644L78.1504,142.005L79.455,141.7868L80.7244,141.6026L82.0323,141.5325L83.3379,141.5676L84.6073,141.7123L85.9152,141.9665L87.1495,142.2593L88.419,142.6582L89.6533,143.056L92.0835,143.9625L93.2794,144.4315L94.5137,144.8339L95.7831,145.1221L97.0909,145.3017L98.3605,145.4464L100.974,145.4464L102.2784,145.338L103.5479,145.1221L104.8184,144.8339L106.0528,144.4315L107.2871,143.9625L109.7162,143.056L112.1849,142.2593L113.4543,141.9665L114.7237,141.7123L116.0327,141.5676L117.3021,141.5325L118.6066,141.6026L119.9156,141.7868L121.1851,142.005L122.416,142.3644L123.6504,142.7632L124.8847,143.2358L127.3183,144.1072L128.5877,144.47L129.8571,144.7593L131.1266,145.0136L132.3959,145.1583L133.7005,145.2317L134.3533,145.2317L135.0095,145.1583L135.6261,144.9786L136.169,144.6497L136.6771,144.2168L137.0754,143.7082L137.3684,143.1261L137.5834,142.5089L137.6581,141.8569L137.6185,141.2048L136.2789,141.458L134.8997,141.5676L133.5206,141.6422L132.1425,141.6026L130.7985,141.4229L129.4589,141.1698L128.1148,140.7708L126.8454,140.2983L124.267,139.3173L122.9625,138.8845L121.6184,138.5205L120.2754,138.3058L118.8997,138.1577L117.5171,138.0877L116.1425,138.0877L101.2285,135.4385L106.0912,117.2715L99.2316,115.4191L94.1889,134.2043L71.8023,130.2519L70.3496,129.8925L68.9308,129.3839L67.5562,128.7318L66.3218,127.9316L65.1226,126.9551L64.0715,125.904L63.6348,125.5401L63.1268,125.322L62.5837,125.2869L62.0407,125.4316L61.5327,125.7198L61.2046,126.1538L60.9862,126.7008L60.9512,127.2433L61.0948,127.787L61.3879,128.2594L62.7286,129.6382L64.2163,130.834L65.8139,131.8488L67.5166,132.7203L69.3336,133.3374L71.1845,133.7714L107.3957,140.1887L106.0166,140.6973L104.6035,141.1698L103.1847,141.4941L101.7354,141.6772L100.2476,141.7868L98.7949,141.7518L97.3456,141.6422L95.8918,141.4229L94.4425,141.0601L93.0644,140.5911L90.3412,139.5716L88.962,139.0642L87.5478,138.6652L86.0951,138.3759L84.6457,138.1577L83.1931,138.0877L81.7042,138.0877L80.2549,138.1973L78.7671,138.3408L77.3529,138.5951L75.9352,139.0291L73.1769,140.044L70.4197,141.0251L69.0055,141.3495L67.5562,141.5676L66.0673,141.6422L64.6146,141.6026L63.1653,141.458L61.7126,141.2048zM61.7126,141.2048"/>
  <path fill="var(--white)" fill-rule="evenodd" stroke="var(--white)" stroke-width="0.2157" stroke-miterlimit="2.613" transform="translate(-1.1483, -9.4312)scale(0.35, 0.3504)" d="M106.1964,116.33L106.1263,115.5638L105.8333,114.802L105.435,114.1148L104.8569,113.5723L104.2007,113.1338L103.4427,112.8806L102.6416,112.7744L101.8451,112.8806L101.1187,113.1338L100.4275,113.5723L99.8844,114.1148L99.4511,114.802L99.1966,115.5638L99.0879,116.33L99.1966,117.1268L99.4511,117.8886L99.8844,118.5407L100.4275,119.1183L101.1187,119.5556L101.8451,119.8099L102.6416,119.88L103.4427,119.8099L104.2007,119.5556L104.8569,119.1183L105.435,118.5407L105.8333,117.8886L106.1263,117.1268L106.1964,116.33zM106.1964,116.33"/>
  <path fill="var(--white)" fill-rule="evenodd" stroke="var(--white)" stroke-width="0.2157" stroke-miterlimit="2.613" transform="translate(-1.1483, -9.4312)scale(0.35, 0.3504)" d="M125.068,121.3685L124.9933,120.5717L124.7399,119.8099L124.302,119.1578L123.7239,118.5758L123.0722,118.1768L122.3097,117.8886L121.5098,117.814L120.7472,117.8886L119.9858,118.1768L119.2979,118.5758L118.7514,119.1578L118.3181,119.8099L118.0636,120.5717L117.955,121.3685L118.0636,122.1653L118.3181,122.892L118.7514,123.5792L119.2979,124.1612L119.9858,124.5602L120.7472,124.8145L121.5098,124.923L122.3097,124.8145L123.0722,124.5602L123.7239,124.1612L124.302,123.5792L124.7399,122.892L124.9933,122.1653L125.068,121.3685zM125.068,121.3685"/>
  <path fill="var(--white)" fill-rule="evenodd" stroke="var(--white)" stroke-width="0.2157" stroke-miterlimit="2.613" transform="translate(-1.1483, -9.4312)scale(0.35, 0.3504)" d="M122.4545,117.9236L103.5479,112.9191L101.7354,119.7715L120.6035,124.8145L122.4545,117.9236zM122.4545,117.9236"/>
</svg>