<?xml version="1.0" encoding="UTF-8" standalone="no"?>
<!-- Created with Pixodesk SVG (https://pixodesk.com) -->
<svg xmlns="http://www.w3.org/2000/svg" viewBox="0 0 64 64" text-rendering="geometricPrecision" shape-rendering="geometricPrecision" style="--black:#050505;--white:#b9b0a1;--red:#8f3338;--green:#3f7c43;--yellow:#8c7a34;--blue:#455e76;--orange:#7f4a2b;--magenta:#6c3f6e;--grey:#4e5452;--gray:#4e5452;--brown:#66502f;--ink:#050505" data-canonical-asset="NMKINF45" data-canonical-revision="canonical-by-asset-v1" width="150" height="150" data-helm-proof-render="helm-canonical-art" data-helm-preview-source="canonical-art" data-canonical-source="assets/svg/human_approved_nmkinf/NMKINF45.svg">
  <g stroke-linecap="round" stroke-linejoin="round">
    <rect fill="var(--blue)" stroke="var(--black)" stroke-width="1.8" rx="3" ry="0" x="10" y="10" width="44" height="44"/>
  </g>
  <g fill="var(--white)" transform="translate(-247.58, -156.15)">
    <path fill="var(--white)" stroke="var(--white)" stroke-width="0px" transform="translate(15.0119, 7.885)" d="M279.0203,168.7591L274.9206,171.621C274.1622,172.1498,273.5827,173.6631,273.2634,174.1967L270.4681,175.8739C270.4681,175.8739,270.1488,175.6903,269.889,175.7275C269.4399,175.7917,268.8953,176.0213,268.7044,176.4329C268.6259,176.6021,268.7044,176.992,268.7044,176.992L266.9473,178.1101L266.8675,177.4712C266.8675,177.4712,267.1516,175.2629,266.4282,174.6361C265.7079,174.0119,264.41,173.8727,263.9126,175.3149C263.6582,176.0522,264.0791,177.4875,264.5515,177.631L265.1105,178.4363L263.8327,179.3947L262.069,181.0719L260.3919,182.19C260.3919,182.19,260.0689,182.0481,259.7396,182.1035C259.3626,182.1669,259.0499,182.2604,258.8877,182.6026C258.7737,182.8434,258.9143,183.1151,258.9143,183.1151L255.3737,185.3713C254.4016,185.3745,253.3651,185.6504,252.3188,185.9504C250.865,186.8799,249.4579,187.9053,248.0793,188.9853L249.5235,190.6624L253.9894,187.9404C256.019,188.9258,258.2966,189.0326,260.4719,189.145C264.7769,189.4709,269.8242,188.6229,274.6214,186.6692C275.8806,186.1564,276.3335,184.4852,275.4201,182.5096C275.4201,182.5096,274.3951,183.3948,273.7695,183.6077C272.4739,184.0489,269.6764,183.8939,269.6764,183.8939L269.6032,181.2718C269.6032,181.2718,270.4466,180.4608,270.9941,180.1803C271.4384,179.9527,272.06,179.948,272.3053,179.5414C272.393,179.3959,272.355,179.1913,272.3053,179.0289C272.0152,178.0821,270.6946,176.7993,270.6946,176.7993L270.708,176.38L273.7428,174.4366C273.7428,174.4366,275.3631,174.3297,276.1588,173.9841C277.767,173.2853,280.538,170.8361,280.538,170.8361L279.0203,168.7591zM268.7844,177.491L269.5764,177.7439L270.0822,177.7173L270.568,178.283L270.7078,178.9885L269.8026,178.9286L268.984,178.5092L267.7927,178.5891L267.766,178.283L268.7844,177.491zM263.7528,181.6706L263.7262,184.4725C263.7262,184.4725,260.6355,184.3999,259.2337,184.9517C258.5763,185.2105,257.5366,186.2229,257.5366,186.2229C256.7602,186.3529,255.7761,186.6088,255.6731,186.1297C256.2155,185.385,258.765,183.9382,259.3935,183.4543L260.1656,183.2813C260.8258,183.3871,260.6474,183.3348,261.297,183.2813C262.0196,183.1433,262.9625,182.3505,263.7528,181.6707L263.7528,181.6706z"/>
  </g>
</svg>