<?xml version="1.0" encoding="UTF-8"?>
<svg xmlns="http://www.w3.org/2000/svg" viewBox="0 0 64 64" role="img" preserveAspectRatio="xMidYMid meet" shape-rendering="geometricPrecision" data-origin="generated-owned-artwork" data-source-boundary="generated_owned_helm_style_derived_from_promoted_s101_witness" data-cleanroom-rerender="s101-promoted-helm-derived-v3" data-generator="forge.s101_promoted_helm_derive" data-canonical-asset="RECDEF51" data-style-contract="helm-openbridge-navigation-v1" data-s101-witness="s101-resolved:RECDEF51.svg">
  <title>RECDEF51 Helm-derived S-101 witness art</title>
  <desc>Separate Helm artifact derived from promoted S-101 witness s101-resolved:RECDEF51.svg. Promotion kind=symbol; original viewBox=-9.38 -9.42 18.59 18.59.</desc>
<style><![CDATA[
    .layout,.pivotPoint{display:none}
    .sl,.f0{fill:none}
    .sCHBLK{stroke:#111111}.fCHBLK{fill:#111111}
    .sCHBRN{stroke:#9b6a27}.fCHBRN{fill:#9b6a27}
    .sCHMGD,.sCHMGF{stroke:#c035b0}.fCHMGD,.fCHMGF{fill:#c035b0}
    .sCHRED{stroke:#ef3340}.fCHRED{fill:#ef3340}
    .sCHGRN{stroke:#00a651}.fCHGRN{fill:#00a651}
    .sCHYLW{stroke:#f6d32d}.fCHYLW{fill:#f6d32d}
    .sCHWHT{stroke:#ffffff}.fCHWHT{fill:#ffffff}
    .sCHGRD{stroke:#7b6b2d}.fCHGRD{fill:#7b6b2d}
    .sCHGRF{stroke:#6f7f87}.fCHGRF{fill:#6f7f87}
    .sCHBLU{stroke:#1677c8}.fCHBLU{fill:#1677c8}
    .sLANDF{stroke:#9b6a27}.fLANDF{fill:#9b6a27}
    .sNINFO{stroke:#c035b0}.fNINFO{fill:#c035b0}
    .sTRFCD,.sTRFCF{stroke:#c035b0}.fTRFCD,.fTRFCF{fill:#c035b0}
    .sCURSR,.sSCLBR,.sCHCOR{stroke:#f07a18}.fCURSR,.fSCLBR,.fCHCOR{fill:#f07a18}
    .helm-derived-strokes *{
      stroke-width:0.22032593px !important;
      stroke-linecap:round;
      stroke-linejoin:round;
    }
  ]]></style>
  <g class="helm-derived-strokes" transform="matrix(2.90478752 0 0 2.90478752 32.24690694 32.36309844)">
<path d=" M -8.74,0.02 L -5.49,0.02" class="sl f0 sCHGRD" stroke-width="0.32" />
  <path d=" M 5.32,0.02 L 8.57,0.02" class="sl f0 sCHGRD" stroke-width="0.32" />
  <path d=" M -1.12,-1.38 L -0.99,-1.66 L -0.86,-1.91 L -0.69,-2.08 L -0.52,-2.25 L -0.26,-2.34 L -0.03,-2.32 L 0.27,-2.23 L 0.55,-2.17 L 0.78,-1.83 L 0.96,-1.64 L 1.08,-1.42 L 1.08,-1.17 L 0.96,-0.93 L 0.83,-0.72 L 0.63,-0.48 L 0.4,-0.23 L 0.19,0.03 L 0.06,0.22 L -0.05,0.39 L -0.07,0.61 L -0.07,0.84 L -0.07,1.01 L -0.05,1.23 L -0.05,1.25" class="sl f0 sCHGRD" stroke-width="0.32" />
  <path d=" M -0.26,2.09 L 0.27,2.09" class="sl f0 sCHGRD" stroke-width="0.64" />
  <path d=" M -2.16,1.57 L -4.21,0.02 L -2.16,-1.53" class="sl f0 sCHGRD" stroke-width="0.32" />
  <path d=" M 1.9,1.53 L 3.95,-0.02 L 1.9,-1.57" class="sl f0 sCHGRD" stroke-width="0.32" />
  </g>
</svg>
