<?xml version="1.0" encoding="UTF-8"?>
<svg xmlns="http://www.w3.org/2000/svg" viewBox="0 0 64 64" role="img" preserveAspectRatio="xMidYMid meet" shape-rendering="geometricPrecision" data-origin="generated-owned-artwork" data-source-boundary="generated_owned_helm_style_derived_from_promoted_s101_witness" data-cleanroom-rerender="s101-promoted-helm-derived-v3" data-generator="forge.s101_promoted_helm_derive" data-canonical-asset="RFNERY01" data-style-contract="helm-openbridge-navigation-v1" data-s101-witness="s101-resolved:RFNERY01.svg">
  <title>RFNERY01 Helm-derived S-101 witness art</title>
  <desc>Separate Helm artifact derived from promoted S-101 witness s101-resolved:RFNERY01.svg. Promotion kind=symbol; original viewBox=-4.05 -4.17 8.08 8.08.</desc>
<style><![CDATA[
    .layout,.pivotPoint{display:none}
    .sl,.f0{fill:none}
    .sCHBLK{stroke:#111111}.fCHBLK{fill:#111111}
    .sCHBRN{stroke:#9b6a27}.fCHBRN{fill:#9b6a27}
    .sCHMGD,.sCHMGF{stroke:#c035b0}.fCHMGD,.fCHMGF{fill:#c035b0}
    .sCHRED{stroke:#ef3340}.fCHRED{fill:#ef3340}
    .sCHGRN{stroke:#00a651}.fCHGRN{fill:#00a651}
    .sCHYLW{stroke:#f6d32d}.fCHYLW{fill:#f6d32d}
    .sCHWHT{stroke:#ffffff}.fCHWHT{fill:#ffffff}
    .sCHGRD{stroke:#7b6b2d}.fCHGRD{fill:#7b6b2d}
    .sCHGRF{stroke:#6f7f87}.fCHGRF{fill:#6f7f87}
    .sCHBLU{stroke:#1677c8}.fCHBLU{fill:#1677c8}
    .sLANDF{stroke:#9b6a27}.fLANDF{fill:#9b6a27}
    .sNINFO{stroke:#c035b0}.fNINFO{fill:#c035b0}
    .sTRFCD,.sTRFCF{stroke:#c035b0}.fTRFCD,.fTRFCF{fill:#c035b0}
    .sCURSR,.sSCLBR,.sCHCOR{stroke:#f07a18}.fCURSR,.fSCLBR,.fCHCOR{fill:#f07a18}
    .helm-derived-strokes *{
      stroke-width:0.09576296px !important;
      stroke-linecap:round;
      stroke-linejoin:round;
    }
  ]]></style>
  <g class="helm-derived-strokes" transform="matrix(6.68316832 0 0 6.68316832 32.06683168 32.86881188)">
<path d=" M -0.6,2.35 L -0.6,-0.9 L 0.4,-0.9 L 0.4,2.35 L 0.27,1.97 L -0.1,1.85 L -0.42,1.97 L -0.6,2.35 Z" class="fLANDF"/>
  <path d=" M 0.46,-3.22 L 0.15,-3.03 L -0.17,-2.84 L -0.42,-2.53 L -0.6,-2.15 L -0.6,-1.78 L -0.54,-1.59 L -0.29,-1.47 L 0.02,-1.47 L 0.21,-1.59 L 0.33,-1.84 L 0.27,-2.15 L 0.15,-2.28 L 0.15,-2.53 L 0.15,-2.78 L 0.33,-2.97 L 0.46,-3.22" class="sl f0 sLANDF" stroke-width="0.64" />
  <circle class="f0 sLANDF" stroke-width="0.32"  cx="-0.01" cy="-0.13" r="3.4"/>
  <path d=" M -1.61,2.31 L 1.34,2.31" class="sl f0 sLANDF" stroke-width="0.32" />
  </g>
</svg>
