<svg xmlns="http://www.w3.org/2000/svg" viewBox="0 0 64 64" role="img" data-origin="generated-owned-artwork" data-style-contract="helm-openbridge-navigation-v1" data-repair-batch="standard-repair-batch19" style="--black:#050505;--white:#b9b0a1;--red:#8f3338;--green:#3f7c43;--yellow:#8c7a34;--blue:#455e76;--orange:#7f4a2b;--magenta:#6c3f6e;--grey:#4e5452;--gray:#4e5452;--brown:#66502f;--ink:#050505" data-canonical-asset="WRECKS05" data-canonical-revision="canonical-by-asset-v1" width="150" height="150" data-helm-proof-render="helm-canonical-art" data-helm-preview-source="canonical-art" data-canonical-source="assets/svg/owned_repair_batch27/WRECKS05.svg"><title>WRECKS05 wreck rock hazard repair batch 27 candidate</title><g stroke-linecap="round" stroke-linejoin="round"><path d="M11 26 C16 16 27 12 38 15 C47 18 53 25 53 32 C53 40 45 47 34 49 C22 50 13 43 10 35 Z" fill="var(--blue)" stroke="none"/><circle cx="53.0" cy="32.0" r="2.2" fill="var(--black)" stroke="none"/><circle cx="51.7" cy="37.8" r="2.2" fill="var(--black)" stroke="none"/><circle cx="48.1" cy="42.9" r="2.2" fill="var(--black)" stroke="none"/><circle cx="42.5" cy="46.7" r="2.2" fill="var(--black)" stroke="none"/><circle cx="35.6" cy="48.7" r="2.2" fill="var(--black)" stroke="none"/><circle cx="28.4" cy="48.7" r="2.2" fill="var(--black)" stroke="none"/><circle cx="21.5" cy="46.7" r="2.2" fill="var(--black)" stroke="none"/><circle cx="15.9" cy="42.9" r="2.2" fill="var(--black)" stroke="none"/><circle cx="12.3" cy="37.8" r="2.2" fill="var(--black)" stroke="none"/><circle cx="11.0" cy="32.0" r="2.2" fill="var(--black)" stroke="none"/><circle cx="12.3" cy="26.2" r="2.2" fill="var(--black)" stroke="none"/><circle cx="15.9" cy="21.1" r="2.2" fill="var(--black)" stroke="none"/><circle cx="21.5" cy="17.3" r="2.2" fill="var(--black)" stroke="none"/><circle cx="28.4" cy="15.3" r="2.2" fill="var(--black)" stroke="none"/><circle cx="35.6" cy="15.3" r="2.2" fill="var(--black)" stroke="none"/><circle cx="42.5" cy="17.3" r="2.2" fill="var(--black)" stroke="none"/><circle cx="48.1" cy="21.1" r="2.2" fill="var(--black)" stroke="none"/><circle cx="51.7" cy="26.2" r="2.2" fill="var(--black)" stroke="none"/><path d="M17 32 H48" fill="none" stroke="var(--black)" stroke-width="4.2"/><path d="M24 22 V42 M32 18 V46 M40 22 V42" fill="none" stroke="var(--black)" stroke-width="4.2"/></g></svg>
