<svg style="--black:#000000;--white:#ffffff;--red:#EA5471;--green:#52E83B;--yellow:#F4DA48;--blue:#8FB5D9;--orange:#EB7D36;--magenta:#C545C3;--grey:#7D898C;--gray:#7D898C;--brown:#B19139;--ink:#000000" xmlns="http://www.w3.org/2000/svg" viewBox="0 0 64 64" role="img" data-origin="generated-owned-artwork" data-style-contract="helm-openbridge-navigation-v1" data-repair-batch="human-final-boybar-exact" data-helm-proof-render="helm-canonical-art" data-helm-preview-source="canonical-art" data-canonical-source="proof/svg-day/BOYBAR60.svg"><title>BOYBAR60 final BOYBAR source-exact candidate</title><g stroke-linecap="round" stroke-linejoin="round"><path id="barrel-fill" d="M12.656 13.531 L51.313 13.531 C53.875 13.531 55.281 17.25 55.938 23.188 C56.5 28.188 56.938 34.625 56.438 40.438 H7.438 C6.813 34.813 6.813 23.75 9.094 17.125 C10.563 12.844 13.281 11.906 15.406 16.344 C17.938 21.688 18.781 33.75 17.969 40.531 H56.438 L57 42.167 H3.234 L3.234 40.815 H7.438 Z" fill="var(--red)" stroke="none"/><g id="barrel-body" fill="none" stroke="var(--black)" stroke-width="1.6875"><path id="barrel-top-and-right-side" d="M12.656 13.531 L51.313 13.531 C53.875 13.531 55.281 17.25 55.938 23.188 C56.5 28.188 56.938 34.625 56.438 40.438"/></g><g id="left-end-cap" fill="none" stroke="var(--black)" stroke-width="1.6875"><path id="left-elliptical-end" d="M7.438 40.688 C6.813 34.813 6.813 23.75 9.094 17.125 C10.563 12.844 13.281 11.906 15.406 16.344 C17.938 21.688 18.781 33.75 17.969 40.531"/></g><rect id="straight-waterline" x="3.234" y="40.815" width="57.002" height="1.352" fill="var(--black)" stroke="none"/><circle id="outer-lid" cx="35.892" cy="38.592" r="4.147" fill="var(--black)" stroke="none"/><circle id="inner-lid-cutout" cx="35.894" cy="38.531" r="2.848" fill="var(--white)" stroke="none"/></g></svg>
