<?xml version="1.0" encoding="UTF-8"?>
<svg xmlns="http://www.w3.org/2000/svg" viewBox="0 0 64 64" role="img" preserveAspectRatio="xMidYMid meet" shape-rendering="geometricPrecision" data-origin="generated-owned-artwork" data-source-boundary="generated_owned_helm_style_derived_from_promoted_s101_witness" data-cleanroom-rerender="s101-promoted-helm-derived-v3" data-generator="forge.s101_promoted_helm_derive" data-canonical-asset="CURDEF01" data-style-contract="helm-openbridge-navigation-v1" data-s101-witness="s101-resolved:CURDEF01.svg">
  <title>CURDEF01 Helm-derived S-101 witness art</title>
  <desc>Separate Helm artifact derived from promoted S-101 witness s101-resolved:CURDEF01.svg. Promotion kind=legacy-s101-cleanup; original viewBox=-5.52 -5.625 11.37 11.37.</desc>
<style><![CDATA[
    .layout,.pivotPoint{display:none}
    .sl,.f0{fill:none}
    .sCHBLK{stroke:#111111}.fCHBLK{fill:#111111}
    .sCHBRN{stroke:#9b6a27}.fCHBRN{fill:#9b6a27}
    .sCHMGD,.sCHMGF{stroke:#c035b0}.fCHMGD,.fCHMGF{fill:#c035b0}
    .sCHRED{stroke:#ef3340}.fCHRED{fill:#ef3340}
    .sCHGRN{stroke:#00a651}.fCHGRN{fill:#00a651}
    .sCHYLW{stroke:#f6d32d}.fCHYLW{fill:#f6d32d}
    .sCHWHT{stroke:#ffffff}.fCHWHT{fill:#ffffff}
    .sCHGRD{stroke:#7b6b2d}.fCHGRD{fill:#7b6b2d}
    .sCHGRF{stroke:#6f7f87}.fCHGRF{fill:#6f7f87}
    .sCHBLU{stroke:#1677c8}.fCHBLU{fill:#1677c8}
    .sLANDF{stroke:#9b6a27}.fLANDF{fill:#9b6a27}
    .sNINFO{stroke:#c035b0}.fNINFO{fill:#c035b0}
    .sTRFCD,.sTRFCF{stroke:#c035b0}.fTRFCD,.fTRFCF{fill:#c035b0}
    .sCURSR,.sSCLBR,.sCHCOR{stroke:#f07a18}.fCURSR,.fSCLBR,.fCHCOR{fill:#f07a18}
    .helm-derived-strokes *{
      stroke-width:0.13475556px !important;
      stroke-linecap:round;
      stroke-linejoin:round;
    }
  ]]></style>
  <g class="helm-derived-strokes" transform="matrix(4.74934037 0 0 4.74934037 31.21635884 31.71503958)">
<path d=" M -1,4.47 L -0,2.48 L 0.99,4.47" class="sl f0 sCHGRD" stroke-width="0.32" />
  <path d=" M -1,2.63 L -0,0.64 L 0.99,2.63" class="sl f0 sCHGRD" stroke-width="0.32" />
  <path d=" M -0,-4.48 L -0,4.6" class="sl f0 sCHGRD" stroke-width="0.32" />
  <path d=" M -1.01,-1.99 L 0.01,-4.46 L 1.01,-1.99" class="sl f0 sCHGRD" stroke-width="0.32" />
  <path d=" M -4.88,-1 L -4.75,-1.28 L -4.62,-1.53 L -4.45,-1.7 L -4.28,-1.87 L -4.02,-1.96 L -3.79,-1.94 L -3.49,-1.85 L -3.21,-1.79 L -2.98,-1.45 L -2.8,-1.26 L -2.68,-1.04 L -2.68,-0.79 L -2.8,-0.55 L -2.93,-0.34 L -3.13,-0.1 L -3.36,0.15 L -3.57,0.41 L -3.7,0.6 L -3.81,0.77 L -3.83,0.99 L -3.83,1.22 L -3.83,1.39 L -3.81,1.61 L -3.81,1.63" class="sl f0 sCHGRD" stroke-width="0.32" />
  <path d=" M -4.02,2.47 L -3.49,2.47" class="sl f0 sCHGRD" stroke-width="0.64" />
  <path d=" M 3.01,-1.06 L 3.14,-1.34 L 3.27,-1.59 L 3.44,-1.76 L 3.61,-1.93 L 3.87,-2.02 L 4.1,-2 L 4.4,-1.91 L 4.68,-1.85 L 4.91,-1.51 L 5.09,-1.32 L 5.21,-1.1 L 5.21,-0.85 L 5.09,-0.61 L 4.96,-0.4 L 4.76,-0.16 L 4.53,0.09 L 4.32,0.35 L 4.19,0.54 L 4.08,0.71 L 4.06,0.93 L 4.06,1.16 L 4.06,1.33 L 4.08,1.55 L 4.08,1.57" class="sl f0 sCHGRD" stroke-width="0.32" />
  <path d=" M 3.87,2.41 L 4.4,2.41" class="sl f0 sCHGRD" stroke-width="0.64" />
  </g>
</svg>
