<?xml version="1.0" encoding="UTF-8"?>
<svg xmlns="http://www.w3.org/2000/svg" viewBox="0 0 64 64" role="img" preserveAspectRatio="xMidYMid meet" shape-rendering="geometricPrecision" data-origin="generated-owned-artwork" data-source-boundary="generated_owned_helm_style_derived_from_promoted_s101_witness" data-cleanroom-rerender="s101-promoted-helm-derived-v3" data-generator="forge.s101_promoted_helm_derive" data-canonical-asset="FSHHAV01" data-style-contract="helm-openbridge-navigation-v1" data-s101-witness="s101-resolved:FSHHAV01.svg">
  <title>FSHHAV01 Helm-derived S-101 witness art</title>
  <desc>Separate Helm artifact derived from promoted S-101 witness s101-resolved:FSHHAV01.svg. Promotion kind=symbol; original viewBox=-7.21 -5.9 11.76 11.76.</desc>
<style><![CDATA[
    .layout,.pivotPoint{display:none}
    .sl,.f0{fill:none}
    .sCHBLK{stroke:#111111}.fCHBLK{fill:#111111}
    .sCHBRN{stroke:#9b6a27}.fCHBRN{fill:#9b6a27}
    .sCHMGD,.sCHMGF{stroke:#c035b0}.fCHMGD,.fCHMGF{fill:#c035b0}
    .sCHRED{stroke:#ef3340}.fCHRED{fill:#ef3340}
    .sCHGRN{stroke:#00a651}.fCHGRN{fill:#00a651}
    .sCHYLW{stroke:#f6d32d}.fCHYLW{fill:#f6d32d}
    .sCHWHT{stroke:#ffffff}.fCHWHT{fill:#ffffff}
    .sCHGRD{stroke:#7b6b2d}.fCHGRD{fill:#7b6b2d}
    .sCHGRF{stroke:#6f7f87}.fCHGRF{fill:#6f7f87}
    .sCHBLU{stroke:#1677c8}.fCHBLU{fill:#1677c8}
    .sLANDF{stroke:#9b6a27}.fLANDF{fill:#9b6a27}
    .sNINFO{stroke:#c035b0}.fNINFO{fill:#c035b0}
    .sTRFCD,.sTRFCF{stroke:#c035b0}.fTRFCD,.fTRFCF{fill:#c035b0}
    .sCURSR,.sSCLBR,.sCHCOR{stroke:#f07a18}.fCURSR,.fSCLBR,.fCHCOR{fill:#f07a18}
    .helm-derived-strokes *{
      stroke-width:0.13937778px !important;
      stroke-linecap:round;
      stroke-linejoin:round;
    }
  ]]></style>
  <g class="helm-derived-strokes" transform="matrix(4.59183673 0 0 4.59183673 38.10714286 32.09183673)">
<path d=" M -4.91,1.18 L -3.5,0 L -2.91,-0.66 L -2.22,-1.1 L -1.5,-1.38 L -0.82,-1.57 L -0.07,-1.57 L 0.56,-1.5 L 1.31,-1.25 L 2,-0.94 L 2.62,-0.47 L 3,0 L 2.53,0.43 L 2.09,0.81 L 1.53,1.09 L 0.81,1.37 L 0.09,1.5 L -0.72,1.5 L -1.5,1.37 L -2.25,1.09 L -2.91,0.65 L -3.35,0.28" class="sl f0 sCHGRD" stroke-width="0.64" />
  <path d=" M -3.75,-0.19 L -4.75,-1.47" class="sl f0 sCHGRD" stroke-width="0.64" />
  <path d=" M 1.43,-1.22 L 1.25,-0.88 L 1.12,-0.41 L 1.09,-0.1 L 1.09,0.15 L 1.18,0.59 L 1.37,1.15" class="sl f0 sCHGRD" stroke-width="0.64" />
  <path d=" M -3.35,0.28 L -3.75,-0.19" class="sl f0 sCHGRD" stroke-width="0.64" />
  <circle class="fCHGRD" cx="-1.25" cy="-3.1" r="0.32"/>
  <circle class="fCHGRD" cx="-1.25" cy="3.06" r="0.32"/>
  <circle class="fCHGRD" cx="3.59" cy="0" r="0.32"/>
  <circle class="fCHGRD" cx="-6.25" cy="0" r="0.32"/>
  <circle class="fCHGRD" cx="-4.1" cy="-2.5" r="0.32"/>
  <circle class="fCHGRD" cx="1.4" cy="-2.5" r="0.32"/>
  <circle class="fCHGRD" cx="1.5" cy="2.5" r="0.32"/>
  <circle class="fCHGRD" cx="-5.66" cy="1.5" r="0.32"/>
  <circle class="fCHGRD" cx="-5.66" cy="-1.6" r="0.32"/>
  <circle class="fCHGRD" cx="3" cy="-1.6" r="0.32"/>
  <circle class="fCHGRD" cx="3" cy="1.5" r="0.32"/>
  <circle class="fCHGRD" cx="-4.85" cy="-2.16" r="0.32"/>
  <circle class="fCHGRD" cx="-6.1" cy="-1" r="0.32"/>
  <circle class="fCHGRD" cx="-6" cy="1" r="0.32"/>
  <circle class="fCHGRD" cx="3.4" cy="1" r="0.32"/>
  <circle class="fCHGRD" cx="3.34" cy="-1" r="0.32"/>
  <circle class="fCHGRD" cx="2.31" cy="-2" r="0.32"/>
  <circle class="fCHGRD" cx="2.4" cy="2" r="0.32"/>
  <circle class="fCHGRD" cx="-5.1" cy="2" r="0.32"/>
  <circle class="fCHGRD" cx="-3.1" cy="-2.85" r="0.32"/>
  <circle class="fCHGRD" cx="-2.1" cy="-3" r="0.32"/>
  <circle class="fCHGRD" cx="-0.6" cy="-3" r="0.32"/>
  <circle class="fCHGRD" cx="0.4" cy="-2.91" r="0.32"/>
  <circle class="fCHGRD" cx="0.4" cy="2.81" r="0.32"/>
  <circle class="fCHGRD" cx="-0.6" cy="3" r="0.32"/>
  <circle class="fCHGRD" cx="-2.1" cy="3" r="0.32"/>
  <circle class="fCHGRD" cx="-3.1" cy="2.81" r="0.32"/>
  <circle class="fCHGRD" cx="-4.1" cy="2.5" r="0.32"/>
  </g>
</svg>
