<?xml version="1.0" encoding="UTF-8" standalone="no"?>
<!-- Created with Pixodesk SVG (https://pixodesk.com) -->
<svg xmlns="http://www.w3.org/2000/svg" viewBox="0 0 64 64" text-rendering="geometricPrecision" shape-rendering="geometricPrecision" style="--black:#000000;--white:#ffffff;--red:#EA5471;--green:#52E83B;--yellow:#F4DA48;--blue:#8FB5D9;--orange:#EB7D36;--magenta:#C545C3;--grey:#7D898C;--gray:#7D898C;--brown:#B19139;--ink:#000000" data-canonical-asset="NMKINF48" data-canonical-revision="canonical-by-asset-v1" width="150" height="150" data-helm-proof-render="helm-canonical-art" data-helm-preview-source="canonical-art" data-canonical-source="assets/svg/human_approved_nmkinf/NMKINF48.svg">
  <g stroke-linecap="round" stroke-linejoin="round">
    <rect fill="var(--blue)" stroke="var(--black)" stroke-width="1.8" rx="3" ry="0" x="10" y="10" width="44" height="44"/>
  </g>
  <path fill="var(--white)" stroke-width="0" transform="translate(18.2734, 18.4059)" d="M23.1334,20.261C23.7256,20.261,24.3178,20.4646,24.7805,20.8347L25.3727,21.3159C25.9277,21.76,26.6314,22.0378,27.353,22.1117L27.7601,22.1117L27.7601,24.8877L27.6676,24.8877C26.8164,24.8877,26.0203,24.5914,25.3727,24.0734L24.7805,23.6107C24.3178,23.2406,23.7256,23.037,23.1334,23.037C22.5412,23.037,21.949,23.2406,21.4863,23.6107L20.9126,24.0734C20.2464,24.5914,19.4319,24.8877,18.5993,24.8877L18.4142,24.8877C17.5816,24.8877,16.7671,24.5914,16.1009,24.0734L15.5271,23.6107C15.0645,23.2406,14.4723,23.037,13.8801,23.037C13.2878,23.037,12.6956,23.2406,12.233,23.6107L11.6592,24.0734C10.9932,24.5914,10.1787,24.8877,9.3459,24.8877L9.1608,24.8877C8.328,24.8877,7.5135,24.5914,6.8475,24.0734L6.2738,23.6107C5.8111,23.2406,5.2187,23.037,4.6267,23.037C4.0347,23.037,3.4423,23.2406,2.9796,23.6107L2.3874,24.0734C1.7396,24.5914,0.9438,24.8877,0.0925,24.8877L0,24.8877L0,22.1117L0.0925,22.1117C0.9438,22.1117,1.7396,21.8339,2.3874,21.3159L2.9796,20.8347C3.4423,20.4646,4.0347,20.261,4.6267,20.261L4.9228,20.2795C5.4225,20.3348,5.8853,20.5386,6.2738,20.8347L6.8475,21.2974C7.5135,21.8339,8.328,22.1117,9.1608,22.1117L9.3459,22.1117C10.1787,22.1117,10.9932,21.8339,11.6592,21.2974L12.233,20.8347C12.6956,20.4646,13.2878,20.261,13.8801,20.261C14.4723,20.261,15.0645,20.4646,15.5271,20.8347L16.1009,21.2974C16.6746,21.76,17.378,22.0378,18.0996,22.0931L18.4142,22.1117L18.5993,22.1117C19.4319,22.1117,20.2464,21.8339,20.9126,21.2974L21.4863,20.8347C21.949,20.4646,22.5412,20.261,23.1334,20.261zM10.5488,8.065L10.8264,10.3784L13.8801,10.0082C14.2685,9.9527,14.6758,10.1565,14.8792,10.5449C15.1383,11.0631,14.9534,11.674,14.4538,11.9515C14.3244,12.0255,14.1947,12.0625,14.0651,12.0625L11.067,12.4326L11.2149,13.7651L14.8609,14.6905L16.2119,11.4703L16.1749,11.4518L14.4723,9.2865C14.3061,9.0089,14.4353,8.6573,14.4353,8.4167C14.9903,8.1022,15.3051,8.0835,15.6012,8.3611L15.7492,8.3982L17.97,11.3407L26.4646,15.7268L26.8533,15.9119L26.8903,15.9304L26.9088,15.9304C27.353,16.1706,27.2972,16.6894,26.9458,17.0038C26.4276,17.4848,25.2617,18.0032,23.9107,18.4841C23.6516,18.4288,23.3925,18.4103,23.1334,18.4103C22.1155,18.4103,21.1345,18.7621,20.3204,19.3912L19.7467,19.8538C19.4323,20.1129,19.0247,20.261,18.5993,20.261L18.4142,20.261C17.9887,20.261,17.5812,20.1129,17.2668,19.8538L16.6746,19.3912C15.879,18.7621,14.8979,18.4103,13.8801,18.4103C12.8624,18.4103,11.8811,18.7621,11.0855,19.3912L10.4933,19.8538C10.1789,20.1129,9.7716,20.261,9.3459,20.261L9.1608,20.261C8.7352,20.261,8.3278,20.1129,8.0134,19.8538L7.4212,19.3912C6.6256,18.7621,5.6444,18.4103,4.6267,18.4103C3.6088,18.4103,2.6278,18.7621,1.8322,19.3912L3.1091,16.134L7.9022,15.5603C7.3657,15.2086,6.977,14.6162,6.903,13.9317L6.2553,8.6017C6.1259,7.3988,6.977,6.2884,8.143,6.1403C9.3272,6.0108,10.4008,6.8621,10.5488,8.065zM11.03,3.1422C11.1781,4.345,10.3266,5.4373,9.1423,5.5851C7.9579,5.7332,6.903,4.8632,6.755,3.6603C6.6069,2.4575,7.4584,1.3656,8.6426,1.2175C9.8084,1.0695,10.9005,1.9395,11.03,3.1422z"/>
</svg>