<?xml version="1.0" encoding="UTF-8"?>
<svg xmlns="http://www.w3.org/2000/svg" viewBox="0 0 64 64" role="img" preserveAspectRatio="xMidYMid meet" shape-rendering="geometricPrecision" data-origin="generated-owned-artwork" data-source-boundary="generated_owned_helm_style_derived_from_promoted_s101_witness" data-cleanroom-rerender="s101-promoted-helm-derived-v3" data-generator="forge.s101_promoted_helm_derive" data-canonical-asset="RTLDEF51" data-style-contract="helm-openbridge-navigation-v1" data-s101-witness="s101-resolved:RTLDEF51.svg">
  <title>RTLDEF51 Helm-derived S-101 witness art</title>
  <desc>Separate Helm artifact derived from promoted S-101 witness s101-resolved:RTLDEF51.svg. Promotion kind=symbol; original viewBox=-7.885 -7.58 15.18 15.18.</desc>
<style><![CDATA[
    .layout,.pivotPoint{display:none}
    .sl,.f0{fill:none}
    .sCHBLK{stroke:#111111}.fCHBLK{fill:#111111}
    .sCHBRN{stroke:#9b6a27}.fCHBRN{fill:#9b6a27}
    .sCHMGD,.sCHMGF{stroke:#c035b0}.fCHMGD,.fCHMGF{fill:#c035b0}
    .sCHRED{stroke:#ef3340}.fCHRED{fill:#ef3340}
    .sCHGRN{stroke:#00a651}.fCHGRN{fill:#00a651}
    .sCHYLW{stroke:#f6d32d}.fCHYLW{fill:#f6d32d}
    .sCHWHT{stroke:#ffffff}.fCHWHT{fill:#ffffff}
    .sCHGRD{stroke:#7b6b2d}.fCHGRD{fill:#7b6b2d}
    .sCHGRF{stroke:#6f7f87}.fCHGRF{fill:#6f7f87}
    .sCHBLU{stroke:#1677c8}.fCHBLU{fill:#1677c8}
    .sLANDF{stroke:#9b6a27}.fLANDF{fill:#9b6a27}
    .sNINFO{stroke:#c035b0}.fNINFO{fill:#c035b0}
    .sTRFCD,.sTRFCF{stroke:#c035b0}.fTRFCD,.fTRFCF{fill:#c035b0}
    .sCURSR,.sSCLBR,.sCHCOR{stroke:#f07a18}.fCURSR,.fSCLBR,.fCHCOR{fill:#f07a18}
    .helm-derived-strokes *{
      stroke-width:0.17991111px !important;
      stroke-linecap:round;
      stroke-linejoin:round;
    }
  ]]></style>
  <g class="helm-derived-strokes" transform="matrix(3.55731225 0 0 3.55731225 33.04940711 31.96442688)">
<path d=" M -1.23,-5.32 L 0,-6.94 L 1.23,-5.32" class="sl f0 sTRFCD" stroke-width="0.96" />
  <path d=" M -2.14,-4.16 L -2.97,-3 L -1.49,-3" class="sl f0 sTRFCD" stroke-width="0.96" />
  <path d=" M 1.37,-3.04 L 3,-3.04 L 2.06,-4.27" class="sl f0 sTRFCD" stroke-width="0.96" />
  <path d=" M -1.53,5.08 L -1.53,6.96 L 1.51,6.96 L 1.51,5.11" class="sl f0 sTRFCD" stroke-width="0.96" />
  <path d=" M -1.53,3.58 L -1.53,2.01" class="sl f0 sTRFCD" stroke-width="0.96" />
  <path d=" M -1.53,-1.4 L -1.53,0.1" class="sl f0 sTRFCD" stroke-width="0.96" />
  <path d=" M 1.66,-1.48 L 1.66,-0.02" class="sl f0 sTRFCD" stroke-width="0.96" />
  <path d=" M 1.62,1.93 L 1.62,3.45" class="sl f0 sTRFCD" stroke-width="0.96" />
  <path d=" M -6.18,0.27 L -6.05,-0.01 L -5.92,-0.26 L -5.75,-0.43 L -5.58,-0.6 L -5.32,-0.69 L -5.09,-0.67 L -4.79,-0.58 L -4.51,-0.52 L -4.28,-0.18 L -4.1,0.01 L -3.98,0.23 L -3.98,0.48 L -4.1,0.72 L -4.23,0.93 L -4.43,1.17 L -4.66,1.42 L -4.87,1.68 L -5,1.87 L -5.11,2.04 L -5.13,2.26 L -5.13,2.49 L -5.13,2.66 L -5.11,2.88 L -5.11,2.9" class="sl f0 sCHMGD" stroke-width="0.32" />
  <path d=" M -5.32,3.74 L -4.79,3.74" class="sl f0 sCHMGD" stroke-width="0.64" />
  <path d=" M 3.39,0.25 L 3.52,-0.03 L 3.65,-0.28 L 3.82,-0.45 L 3.99,-0.62 L 4.25,-0.71 L 4.48,-0.69 L 4.78,-0.6 L 5.06,-0.54 L 5.29,-0.2 L 5.47,-0.01 L 5.59,0.21 L 5.59,0.46 L 5.47,0.7 L 5.34,0.91 L 5.14,1.15 L 4.91,1.4 L 4.7,1.66 L 4.57,1.85 L 4.46,2.02 L 4.44,2.24 L 4.44,2.47 L 4.44,2.64 L 4.46,2.86 L 4.46,2.88" class="sl f0 sCHMGD" stroke-width="0.32" />
  <path d=" M 4.25,3.72 L 4.78,3.72" class="sl f0 sCHMGD" stroke-width="0.64" />
  </g>
</svg>
