<?xml version="1.0" encoding="UTF-8"?>
<svg xmlns="http://www.w3.org/2000/svg" viewBox="0 0 64 64" role="img" preserveAspectRatio="xMidYMid meet" shape-rendering="geometricPrecision" data-origin="generated-owned-artwork" data-source-boundary="generated_owned_helm_style_derived_from_promoted_s101_witness" data-cleanroom-rerender="s101-promoted-helm-derived-v3" data-generator="forge.s101_promoted_helm_derive" data-canonical-asset="SMCFAC02" data-style-contract="helm-openbridge-navigation-v1" data-s101-witness="s101-resolved:SMCFAC02.svg">
  <title>SMCFAC02 Helm-derived S-101 witness art</title>
  <desc>Separate Helm artifact derived from promoted S-101 witness s101-resolved:SMCFAC02.svg. Promotion kind=symbol; original viewBox=-4.065 -4.09 8.13 8.13.</desc>
<style><![CDATA[
    .layout,.pivotPoint{display:none}
    .sl,.f0{fill:none}
    .sCHBLK{stroke:#111111}.fCHBLK{fill:#111111}
    .sCHBRN{stroke:#9b6a27}.fCHBRN{fill:#9b6a27}
    .sCHMGD,.sCHMGF{stroke:#c035b0}.fCHMGD,.fCHMGF{fill:#c035b0}
    .sCHRED{stroke:#ef3340}.fCHRED{fill:#ef3340}
    .sCHGRN{stroke:#00a651}.fCHGRN{fill:#00a651}
    .sCHYLW{stroke:#f6d32d}.fCHYLW{fill:#f6d32d}
    .sCHWHT{stroke:#ffffff}.fCHWHT{fill:#ffffff}
    .sCHGRD{stroke:#7b6b2d}.fCHGRD{fill:#7b6b2d}
    .sCHGRF{stroke:#6f7f87}.fCHGRF{fill:#6f7f87}
    .sCHBLU{stroke:#1677c8}.fCHBLU{fill:#1677c8}
    .sLANDF{stroke:#9b6a27}.fLANDF{fill:#9b6a27}
    .sNINFO{stroke:#c035b0}.fNINFO{fill:#c035b0}
    .sTRFCD,.sTRFCF{stroke:#c035b0}.fTRFCD,.fTRFCF{fill:#c035b0}
    .sCURSR,.sSCLBR,.sCHCOR{stroke:#f07a18}.fCURSR,.fSCLBR,.fCHCOR{fill:#f07a18}
    .helm-derived-strokes *{
      stroke-width:0.09635556px !important;
      stroke-linecap:round;
      stroke-linejoin:round;
    }
  ]]></style>
  <g class="helm-derived-strokes" transform="matrix(6.64206642 0 0 6.64206642 32.00000000 32.16605166)">
<path d=" M 0.8,-3.3 L 0,-2.05 L 0,1.8 L 3,1.15 L 2.7,0.9 L 2.4,0.65 L 2.1,0.35 L 1.8,-0.05 L 1.55,-0.45 L 1.3,-0.85 L 1.1,-1.3 L 0.95,-1.8 L 0.85,-2.25 L 0.8,-2.7 L 0.8,-3 L 0.8,-3.25 L 0.8,-3.3" class="sl f0 sCHMGD" stroke-width="0.32" />
  <path d=" M 0,-2.45 L -0.3,-2.35 L -0.6,-2.1 L -0.85,-1.95 L -1.1,-1.7 L -1.3,-1.45 L -1.5,-1.15 L -1.7,-0.9 L -1.85,-0.55 L -2,-0.2 L -2.1,0.1 L -2.15,0.5 L -2.2,0.9 L -2.2,1.45 L -2.15,1.75 L -2.15,2.15 L -2.05,2 L -1.8,1.75 L -1.6,1.55 L -1.3,1.4 L -0.95,1.3 L -0.75,1.25 L -0.45,1.25 L -0.6,1.05 L -0.75,0.75 L -0.9,0.3 L -0.95,0 L -0.95,-0.25 L -0.95,-0.5 L -0.95,-0.8 L -0.85,-1.15 L -0.75,-1.5 L -0.55,-1.8 L -0.4,-2.05 L -0.2,-2.3 L -0.05,-2.45 L 0,-2.45" class="sl f0 sCHMGD" stroke-width="0.32" />
  <circle class="f0 sCHMGD" stroke-width="0.32"  cx="0" cy="0" r="3.4"/>
  <path d=" M 0,-3.45 L 0,2.4" class="sl f0 sCHMGD" stroke-width="0.32" />
  <path d=" M -2.42,2.39 L 2.39,2.39" class="sl f0 sCHMGD" stroke-width="0.32" />
  </g>
</svg>
